<svg width="495" height="151" viewBox="0 0 495 151" fill="none" xmlns="http://www.w3.org/2000/svg">
<g clip-path="url(#clip0_489_2)">
<path d="M153.774 0H12.9494C5.79764 0 0 5.79764 0 12.9494V137.587C0 144.739 5.79764 150.537 12.9494 150.537H153.774C160.926 150.537 166.723 144.739 166.723 137.587V12.9494C166.723 5.79764 160.926 0 153.774 0Z" fill="#55B3F3"/>
<path d="M64.7679 47.4209C60.2647 47.5226 56.4151 50.4715 53.2193 56.253C49.8636 62.7609 48.2076 69.9952 48.2367 77.9557C48.2948 78.9145 48.3965 79.0016 48.5563 78.2317C49.9072 72.3775 51.3163 67.8016 52.7835 64.4896C54.2216 61.163 55.8195 58.432 57.5627 56.3257C61.572 51.6627 65.0439 50.9073 67.9928 54.0595C71.2177 57.7783 72.9318 64.0538 73.1352 72.8569C72.9609 84.696 71.4065 93.6444 68.4722 99.731C64.7969 107.14 61.02 109.609 57.185 107.11C51.9555 102.941 49.0502 93.7025 48.4691 79.4229C48.2657 78.929 48.0769 79.2922 47.9316 80.5124C47.6556 81.9941 47.4668 83.6211 47.3505 85.3497C46.9148 93.1069 47.9461 99.6874 50.4302 105.091C52.9723 110.219 56.357 112.819 60.5842 112.907C65.1456 112.834 69.3002 109.856 73.0625 103.944C76.8104 97.7699 79.2218 90.2452 80.2822 81.3404C80.6745 71.8691 79.3961 63.8068 76.4618 57.1537C73.4983 50.8201 69.6198 47.5662 64.8405 47.3918" fill="#F3F6F6"/>
<path d="M98.1789 43.9054C95.8402 40.0704 91.366 38.1965 84.7564 38.3127C77.4496 38.6613 70.3461 40.8403 63.4605 44.8497C62.6615 45.3726 62.6325 45.5179 63.3733 45.2709C69.1258 43.5132 73.7889 42.4382 77.3769 42.0606C80.9795 41.6393 84.1318 41.6538 86.8337 42.1187C92.8767 43.2663 95.2736 45.8956 94.0098 50.0211C92.3974 54.6696 87.8215 59.289 80.2968 63.8794C69.9539 69.6465 61.4268 72.7842 54.701 73.2781C46.4354 73.8011 42.426 71.7674 42.673 67.1915C43.7044 60.5674 50.2413 53.4348 62.3129 45.7794C62.6325 45.3581 62.2257 45.3871 61.1072 45.8665C59.6836 46.3749 58.1873 47.0141 56.6185 47.784C49.6893 51.2849 44.4888 55.4686 41.0605 60.3204C37.8937 65.0851 37.3272 69.3269 39.3609 73.0166C41.6997 76.9243 46.3627 79.0306 53.3645 79.3357C60.5842 79.4955 68.3124 77.8249 76.5489 74.2805C84.9453 69.8789 91.2934 64.751 95.5787 58.8823C99.588 53.1443 100.46 48.1617 98.2225 43.9345" fill="#F3F6F6"/>
<path d="M117.935 71.0846C120.085 67.1334 119.475 62.3251 116.061 56.6598C112.095 50.5005 106.662 45.4453 99.7478 41.4941C98.8907 41.0583 98.76 41.1018 99.3411 41.6248C103.743 45.7213 106.997 49.2367 109.132 52.142C111.296 55.0619 112.865 57.7929 113.81 60.3641C115.843 66.1747 114.754 69.5594 110.556 70.5181C105.718 71.4478 99.4427 69.7918 91.7001 65.5791C81.546 59.507 74.5588 53.6818 70.7528 48.1182C66.1769 41.2181 65.93 36.7294 70.012 34.6521C76.2438 32.2116 85.6861 34.3179 98.3533 40.9566C98.8762 41.0147 98.6583 40.6806 97.6705 39.9543C96.5229 38.9664 95.2155 37.9932 93.7629 37.0199C87.2695 32.7636 81.0521 30.3667 75.1253 29.8147C69.4164 29.4516 65.4651 31.0785 63.2716 34.6956C61.0491 38.6759 61.5575 43.7747 64.7969 49.9776C68.2688 56.3111 73.5855 62.1653 80.7616 67.5256C88.7657 72.5954 96.3922 75.5298 103.612 76.2997C110.585 76.8953 115.349 75.1666 117.877 71.1137" fill="#F3F6F6"/>
<path d="M104.28 101.779C108.783 101.678 112.633 98.7287 115.829 92.9471C119.184 86.4392 120.84 79.205 120.811 71.2445C120.753 70.2857 120.652 70.1985 120.492 70.9685C119.141 76.8227 117.732 81.3985 116.265 84.7106C114.826 88.0372 113.229 90.7681 111.485 92.8745C107.476 97.5375 104.004 98.2929 101.055 95.1406C97.8304 91.4218 96.1163 85.1464 95.9129 76.3433C96.0872 64.5041 97.6416 55.5558 100.576 49.4692C104.251 42.0606 108.028 39.5911 111.863 42.0897C117.093 46.2588 119.998 55.4977 120.579 69.7773C120.782 70.2712 120.971 69.908 121.116 68.6878C121.392 67.2061 121.581 65.5791 121.698 63.8504C122.133 56.0933 121.102 49.5127 118.618 44.1089C116.076 38.981 112.691 36.3807 108.464 36.2936C103.903 36.3662 99.7479 39.3442 95.9856 45.2565C92.2377 51.4302 89.8263 58.955 88.7659 67.8598C88.3736 77.3311 89.652 85.3933 92.5863 92.0465C95.5498 98.3801 99.4284 101.634 104.208 101.808" fill="#F3F6F6"/>
<path d="M51.1128 78.1155C48.9629 82.0667 49.573 86.875 52.9867 92.5404C56.9525 98.6996 62.3854 103.755 69.3001 107.706C70.1571 108.142 70.2879 108.098 69.7068 107.575C65.3053 103.479 62.0513 99.9634 59.9159 97.0581C57.7515 94.1383 56.1826 91.4073 55.2384 88.8361C53.2046 83.0255 54.2941 79.6408 58.4923 78.682C63.3297 77.7523 69.6051 79.4084 77.3478 83.6211C87.5018 89.6932 94.4891 95.5183 98.2951 101.082C102.871 107.982 103.118 112.471 99.0359 114.548C92.804 116.989 83.3618 114.882 70.6946 108.244C70.1717 108.185 70.3896 108.52 71.3774 109.246C72.525 110.234 73.8324 111.207 75.285 112.18C81.7784 116.437 87.9957 118.833 93.9226 119.385C99.6315 119.749 103.583 118.122 105.776 114.505C107.999 110.524 107.49 105.425 104.251 99.2226C100.779 92.889 95.4624 87.0348 88.2863 81.6745C80.2821 76.6047 72.6557 73.6704 65.436 72.9005C58.4633 72.3049 53.6985 74.0335 51.1709 78.0865" fill="#F3F6F6"/>
<path d="M70.869 105.295C73.2078 109.13 77.682 111.004 84.2915 110.887C91.5984 110.539 98.7019 108.36 105.587 104.35C106.386 103.828 106.415 103.682 105.675 103.929C99.9221 105.687 95.2591 106.762 91.671 107.14C88.0685 107.561 84.9162 107.546 82.2143 107.081C76.1712 105.934 73.7743 103.305 75.0381 99.179C76.6506 94.5305 81.2264 89.9111 88.7512 85.3207C99.0941 79.5537 107.621 76.4159 114.347 75.922C122.613 75.3991 126.622 77.4328 126.375 82.0087C125.373 88.6182 118.836 95.7508 106.75 103.406C106.43 103.828 106.837 103.798 107.955 103.319C109.379 102.811 110.875 102.172 112.444 101.402C119.373 97.9007 124.574 93.7171 128.002 88.8652C131.169 84.1005 131.735 79.8587 129.702 76.169C127.363 72.2613 122.7 70.155 115.712 69.8499C108.493 69.6901 100.765 71.3607 92.5281 74.9052C84.1318 79.3067 77.7837 84.4346 73.4983 90.3033C69.489 96.0413 68.6174 101.024 70.8545 105.251" fill="#F3F6F6"/>
<path d="M199.208 89.3334H199.131C199.131 91.2568 199.054 93.2571 199.131 95.2575C199.208 97.7194 199.362 100.181 199.516 102.643C199.516 103.49 199.746 103.72 200.516 103.874C202.131 104.259 203.67 104.336 205.286 104.336C209.44 104.182 213.595 104.49 217.749 104.336C219.442 104.259 220.211 104.413 221.904 104.105C223.443 103.797 223.981 102.951 223.981 100.643C223.827 99.1812 223.904 98.5657 223.904 96.7962C223.904 94.2573 222.135 93.411 220.596 93.4879C219.519 93.5649 214.364 93.411 212.287 93.411C208.825 93.4879 209.363 93.9495 209.363 90.3335C209.363 87.41 209.44 83.6401 209.44 80.6396C209.44 79.0239 209.594 78.4854 211.133 78.4854H220.75C222.289 78.7162 223.366 77.6391 223.366 76.0234C223.366 74.4078 223.52 74.3308 223.52 72.7152L223.289 70.4071C223.135 69.0992 222.673 68.6375 221.365 68.6375C220.519 68.6375 219.673 68.7145 218.827 68.7914C215.518 69.0222 213.98 68.5606 210.748 68.7914C209.671 68.7914 209.517 68.6375 209.44 67.6374C209.133 64.6369 209.44 61.3286 209.748 58.3281C209.825 57.0971 210.133 56.8663 211.287 56.7894L222.135 56.7124C223.597 56.5586 224.058 56.6355 223.981 55.1737C223.827 52.9426 224.058 50.6345 223.827 48.4033C223.674 47.1723 223.289 46.9415 221.904 46.9415C219.596 47.0185 219.057 47.0185 216.749 47.1723C214.441 47.2493 205.209 47.2493 202.978 47.2493C199.746 47.2493 199.516 47.0185 199.439 50.9422C199.285 54.0197 199.362 57.174 199.362 60.3284C199.362 65.714 199.054 85.0249 199.208 89.3334ZM241.984 47.3262C240.292 47.4031 235.753 47.3262 235.137 47.3262C234.06 47.2493 233.367 47.8648 233.444 48.9419C233.444 49.4035 233.598 49.8651 233.829 50.2498C236.06 54.4813 238.138 59.2513 240.138 63.5597L244.985 73.7153C245.446 74.7155 245.139 75.5618 244.754 76.562C244.523 77.1005 244.369 77.716 244.139 78.2546C241.138 85.3327 237.753 92.4878 234.137 99.2581C233.367 100.72 232.521 102.259 231.829 103.72C230.906 105.567 233.983 105.105 237.445 105.105C242.908 105.105 242.985 104.798 243.292 104.105C244.139 102.336 249.216 86.6406 250.678 86.6406C251.832 86.6406 257.525 101.797 258.833 104.259C259.141 104.874 260.141 105.182 260.911 105.182H266.219C267.219 105.182 269.604 105.49 269.604 104.182C269.604 103.182 265.758 96.7193 264.681 94.3342L259.987 83.8709C259.218 82.1783 258.526 80.4857 257.756 78.8701C257.218 77.5621 256.218 75.8695 256.141 74.4847C256.141 73.7153 264.834 56.8663 268.066 48.9419C268.835 47.0185 265.911 47.4031 264.911 47.4031C263.065 47.4801 261.526 47.4031 259.757 47.4801C258.064 47.4801 257.602 47.9417 256.987 49.4035L256.525 50.4806C254.987 53.7119 252.755 59.636 251.14 62.8673C251.063 63.0212 250.832 63.252 250.678 63.252C250.447 63.252 250.217 63.0212 250.217 62.7904C248.909 59.4821 246.216 52.4809 244.677 49.3266C243.985 47.9417 243.6 47.2493 241.984 47.3262Z" fill="#111111"/>
<path d="M307.548 46.9415L278.412 105.214H336.684L307.548 46.9415ZM307.548 57.8013L323.97 90.6457H301.983L304.411 85.7894H316.112L307.548 68.6581L294.127 95.502H326.398L328.826 100.357H286.27L307.548 57.8013Z" fill="#111111"/>
<path d="M355.961 47.4808C355.191 47.4808 354.42 47.5578 353.65 47.5578C352.495 47.5578 351.108 47.3267 350.877 48.8674C350.107 55.4153 349.413 62.6565 348.643 69.2045C347.333 79.9893 346.101 91.0822 344.868 101.867C344.714 103.331 344.56 104.717 346.178 105.025C348.643 105.18 350.492 105.18 352.572 105.102C353.342 105.18 354.189 105.257 354.42 104.332C354.575 103.947 354.575 103.562 354.575 103.177C354.729 101.405 357.04 79.2189 357.964 79.2189C359.428 79.2189 363.279 97.245 365.128 103.87C365.359 104.794 365.822 105.18 366.746 105.102C368.672 104.948 370.521 105.102 372.447 105.102C374.372 105.102 373.987 103.87 374.372 102.252C374.835 100.48 379.303 79.1419 380.381 79.1419C381.614 79.1419 384.156 103.87 384.387 104.409C384.849 105.488 386.159 105.025 387.083 105.025C388.47 105.025 389.779 105.18 391.551 105.025C392.861 104.871 394.17 105.334 394.247 103.639C394.247 103.254 394.093 102.868 394.016 102.483C393.708 100.557 393.323 98.2464 392.938 96.3206C392.398 92.3148 391.628 88.386 391.089 84.3802C390.318 78.0634 389.548 71.7466 388.855 65.4298C388.316 60.0374 387.545 53.9517 387.083 48.5593C386.929 46.7875 384.926 47.4037 383.694 47.4037H378.378C377.531 47.4037 377.146 49.0215 376.992 49.8688C376.529 52.0258 371.214 79.8352 369.442 79.8352C367.67 79.8352 361.97 54.4139 360.968 48.8674C360.737 47.6348 359.89 47.2497 358.734 47.2497L355.961 47.4808ZM402.028 57.4952C402.105 62.0403 402.105 100.634 402.105 103.793C402.105 104.948 402.259 105.18 403.414 105.18C406.033 105.18 406.033 105.257 408.653 105.18C409.192 105.18 410.116 105.18 410.579 104.948C411.118 104.717 410.81 86.5372 410.81 85.5357C410.81 84.4573 412.967 84.6884 413.583 84.6884C426.448 84.6884 429.991 75.4442 429.991 67.5867C429.991 60.4996 428.605 47.4037 412.581 47.4037C409.808 47.4037 406.958 47.4808 404.262 47.4808C403.645 47.4808 402.875 47.4037 402.336 47.7889C401.72 48.2511 401.951 55.1072 402.028 57.4952ZM410.887 73.3643C410.887 71.6696 410.81 61.5781 410.887 58.4967C410.887 58.0345 410.81 57.4952 410.887 56.956C411.118 56.1086 412.119 56.1086 412.89 56.1857C417.358 56.4938 419.9 60.4225 420.285 64.5824C420.593 67.5867 420.208 72.0547 418.051 74.4428C416.51 76.0605 414.507 77.062 411.888 77.062C411.349 77.062 410.81 76.4457 410.81 75.9064C410.81 75.0591 410.81 74.2117 410.887 73.3643ZM437.695 54.9531C437.618 59.7292 438.08 94.6258 438.003 97.1679C438.003 99.556 438.003 101.944 438.08 104.332C438.08 104.717 438.311 105.102 438.696 105.102C444.088 105.334 449.404 104.871 454.796 104.948C456.568 105.025 458.34 104.948 460.035 104.948C461.729 104.871 461.883 104.178 461.806 102.791C461.729 100.634 461.729 98.7086 461.729 96.6287C461.652 95.5502 461.036 95.165 460.112 95.165C456.953 95.2421 453.795 95.088 450.636 95.2421C450.097 95.3191 449.558 95.3191 449.019 95.3191C448.094 95.2421 447.863 95.011 447.786 94.0095V92.854C447.555 86.4602 448.017 79.8352 448.017 73.4413C447.94 68.0489 448.017 63.1958 447.94 58.4196C447.94 56.3397 447.94 54.2598 447.863 52.2569C447.786 51.0244 447.863 49.7148 447.555 48.4822C447.401 48.02 447.17 47.4037 446.631 47.4037H439.389C438.157 47.4037 437.772 48.2511 437.695 49.4837V54.9531ZM469.587 89.3875H469.51C469.51 91.3133 469.433 93.3162 469.51 95.3191C469.587 97.7842 469.741 100.249 469.895 102.714C469.895 103.562 470.126 103.793 470.896 103.947C472.514 104.332 474.055 104.409 475.673 104.409C479.832 104.255 483.992 104.563 488.152 104.409C489.847 104.332 490.617 104.486 492.312 104.178C493.853 103.87 494.392 103.023 494.392 100.712C494.238 99.2479 494.315 98.6316 494.315 96.8598C494.315 94.3177 492.543 93.4703 491.002 93.5473C489.924 93.6244 484.763 93.4703 482.683 93.4703C479.216 93.5473 479.755 94.0095 479.755 90.3889C479.755 87.4616 479.832 83.6869 479.832 80.6826C479.832 79.0649 479.986 78.5256 481.527 78.5256H491.156C492.697 78.7567 493.776 77.6782 493.776 76.0605C493.776 74.4428 493.93 74.3658 493.93 72.748L493.699 70.437C493.545 69.1274 493.082 68.6652 491.773 68.6652C490.925 68.6652 490.078 68.7423 489.231 68.8193C485.918 69.0504 484.377 68.5882 481.142 68.8193C480.064 68.8193 479.909 68.6652 479.832 67.6638C479.524 64.6594 479.832 61.347 480.141 58.3426C480.218 57.1101 480.526 56.879 481.681 56.8019L492.543 56.7249C494.007 56.5708 494.469 56.6479 494.392 55.1842C494.238 52.9502 494.469 50.6392 494.238 48.4052C494.084 47.1726 493.699 46.9415 492.312 46.9415C490.001 47.0186 489.462 47.0186 487.151 47.1726C484.84 47.2497 475.596 47.2497 473.362 47.2497C470.126 47.2497 469.895 47.0186 469.818 50.9473C469.664 54.0287 469.741 57.1871 469.741 60.3455C469.741 65.7379 469.433 85.0735 469.587 89.3875Z" fill="#111111"/>
</g>
<defs>
<clipPath id="clip0_489_2">
<rect width="494.4" height="150.537" fill="white"/>
</clipPath>
</defs>
</svg>
