<svg width="141" height="107" viewBox="0 0 141 107" fill="none" xmlns="http://www.w3.org/2000/svg">
<path d="M41.404 42.0808L45.2991 24.192C45.2991 24.0477 45.2991 23.7592 45.1549 23.6149C45.0106 23.4706 44.8664 23.3264 44.5778 23.3264H12.4068L10.6756 16.9787C10.5313 16.4017 9.95427 15.9689 9.37721 15.9689H1.44265C0.721324 15.9689 0 16.5459 0 17.4115C0 18.1328 0.577059 18.8542 1.44265 18.8542H8.22309C8.22309 18.8542 16.3019 48.1399 16.4462 48.2842C16.1577 48.8612 16.0134 49.4383 16.0134 50.0154C16.0134 52.1793 17.7446 53.9105 19.9085 53.9105C22.0725 53.9105 23.8037 52.1793 23.8037 50.0154C23.8037 49.5826 23.8037 49.294 23.6594 48.8612H36.2105C36.0662 49.1498 36.0662 49.5826 36.0662 50.0154C36.0662 52.1793 37.7974 53.9105 39.9613 53.9105C42.1253 53.9105 43.8565 52.1793 43.8565 50.0154C43.8565 48.1399 42.4139 46.553 40.6827 46.1202C40.5384 45.9759 18.7544 45.976 18.7544 45.976L17.7446 42.5136H40.6827C40.9712 42.6579 41.2597 42.3693 41.404 42.0808ZM39.9613 48.5727C40.8269 48.5727 41.404 49.294 41.404 50.0154C41.404 50.881 40.6827 51.458 39.9613 51.458C39.0958 51.458 38.5187 50.7367 38.5187 50.0154C38.5187 49.1498 39.24 48.5727 39.9613 48.5727ZM19.9085 48.5727C20.7741 48.5727 21.3512 49.294 21.3512 50.0154C21.3512 50.881 20.6299 51.458 19.9085 51.458C19.043 51.458 18.4659 50.7367 18.4659 50.0154C18.4659 49.1498 19.1872 48.5727 19.9085 48.5727Z" fill="#17BAC1"/>
<path d="M140.225 85.216C139.792 83.3406 139.792 80.311 139.792 76.8487C139.792 65.7403 139.937 48.8613 127.097 28.8085L119.307 16.546C118.008 14.382 115.844 12.9393 113.392 12.3623C110.939 11.7852 108.343 12.218 106.179 13.6607C106.179 13.6607 106.034 13.6607 106.034 13.8049C104.736 14.6705 103.726 15.6804 103.005 16.9788C101.851 16.1132 100.552 15.5361 99.254 15.2476C96.6573 14.6705 94.0605 15.1033 91.8965 16.546C91.7523 16.546 91.7523 16.6902 91.608 16.6902C90.0211 17.8444 88.7227 19.287 88.0014 21.1624C85.2604 19.8641 81.9423 20.0083 79.2012 21.5952C79.057 21.5952 78.9127 21.7395 78.7684 21.7395C77.6143 22.4608 76.6045 23.4707 75.8831 24.6248L63.3321 4.86052C61.8895 2.55228 59.437 0.821105 56.6959 0.244045C53.9549 -0.333014 51.2139 0.0997804 48.7614 1.68669C48.7614 1.68669 48.7614 1.68669 48.6171 1.83096H48.4728C46.1646 3.27361 44.4334 5.72611 43.8564 8.46714C43.2793 11.2082 43.7121 13.9492 45.299 16.4017L66.2174 49.4383C65.2075 49.8711 64.1977 50.5925 63.1878 51.3138C62.755 51.6023 62.178 52.0351 61.7452 52.3236C59.2927 53.9106 57.5615 56.3631 56.8402 59.2484C56.1189 62.1337 56.6959 65.1632 58.2828 67.6157L65.6403 79.1569C65.7846 79.3012 65.9289 79.5897 66.0731 79.734C74.8733 91.9965 85.8374 95.1703 93.1949 97.3343C95.2146 97.9113 96.9458 98.4884 98.2442 99.0654C98.5327 99.2097 98.677 99.2097 98.9655 99.2097C102.428 99.931 103.438 101.662 105.313 104.692L106.034 105.702C106.612 106.567 107.477 107 108.487 107C109.064 107 109.497 106.856 110.074 106.567C111.372 105.702 111.805 103.97 110.939 102.672L110.362 101.662C108.343 98.3441 106.179 94.8818 100.408 93.5834C98.8212 92.862 97.0901 92.4293 94.9261 91.8522C87.4243 89.6882 77.3258 86.6587 69.3912 74.1076L63.4764 64.4419C62.755 63.2878 62.4665 61.8451 62.755 60.4025C63.0436 58.9598 63.9092 57.8057 65.0633 57.0844C65.6403 56.6516 66.2174 56.3631 66.6502 55.9303C67.66 55.2089 69.1027 54.3434 69.3912 54.1991C69.3912 54.1991 69.5355 54.3433 69.9683 54.7761L78.4799 68.1928C79.057 69.0584 79.9226 69.4912 80.9324 69.4912C81.5095 69.4912 81.9423 69.3469 82.5193 69.0584C83.8177 68.1928 84.2505 66.4616 83.3849 65.1632L74.8733 51.7466L50.3483 13.2279C49.6269 12.218 49.4827 10.9196 49.7712 9.62126C50.0597 8.32287 50.7811 7.31302 51.9352 6.5917C51.9352 6.5917 51.9352 6.5917 52.0794 6.44743H52.2237C53.2336 5.72611 54.5319 5.58184 55.8303 5.87037C57.1287 6.1589 58.1386 6.88023 58.8599 8.03434L76.1717 35.3004L84.2505 47.9957C84.8276 48.8613 85.6931 49.2941 86.703 49.2941C87.2801 49.2941 87.7128 49.1498 88.2899 48.8613C89.5883 47.9957 90.0211 46.2645 89.1555 44.9661L81.0767 32.2708C79.9225 30.3954 80.4996 27.9429 82.3751 26.6445C84.2505 25.4904 86.703 26.0674 88.0014 27.9429L96.0802 40.6382C96.6573 41.5038 97.5229 41.9366 98.5327 41.9366C99.1098 41.9366 99.5426 41.7923 100.12 41.5038C101.418 40.6382 101.851 38.907 100.985 37.6086L93.9162 26.933C93.3392 26.0674 93.1949 24.9133 93.3392 23.9035C93.6277 22.8936 94.2048 21.8838 95.0704 21.3067C95.936 20.7296 97.0901 20.5854 98.0999 20.7296C99.1098 21.0182 100.12 21.5952 100.697 22.4608L103.438 26.6445L108.92 35.1561C109.497 36.0217 110.362 36.4545 111.372 36.4545C111.949 36.4545 112.382 36.3102 112.959 36.0217C114.258 35.1561 114.69 33.4249 113.825 32.1266L108.343 23.6149C107.766 22.7494 107.621 21.7395 107.91 20.7296C108.198 19.7198 108.776 18.8542 109.497 18.4214C110.362 17.8444 111.372 17.7001 112.382 17.9886C113.392 18.2771 114.258 18.8542 114.69 19.5755L122.481 31.838C134.455 50.5925 134.31 66.4616 134.31 76.8487C134.31 80.8881 134.31 84.0619 134.887 86.5144C135.176 87.8128 136.33 88.6784 137.628 88.6784C137.917 88.6784 138.061 88.6784 138.35 88.5341C139.648 88.2456 140.658 86.6587 140.225 85.216Z" fill="#17BAC1"/>
</svg>
