<svg width="410" height="57" viewBox="0 0 410 57" fill="none" xmlns="http://www.w3.org/2000/svg">
<path d="M43.7661 34.2594C45.1759 35.3873 46.3743 36.7267 47.2202 38.207C48.0661 39.6874 48.4891 41.3792 48.4891 43.2825C48.4891 45.8202 47.7842 47.935 46.3038 49.6268C44.894 51.3891 43.0611 52.7285 40.8759 53.7859C38.6201 54.8433 36.2234 55.6187 33.5446 56.1122C30.8659 56.6056 28.3987 56.8171 26.0019 56.8171C24.1691 56.8171 22.3363 56.6761 20.3625 56.4646C18.4592 56.2531 16.4854 55.9007 14.5821 55.3367C11.4804 54.5613 8.37877 53.3629 5.98202 51.7416C5.13611 51.1072 4.36069 50.4022 3.58527 49.6973C2.88034 49.0629 2.24591 48.358 1.68197 47.653C0.977041 46.9481 -0.291827 45.4678 0.0606363 45.5383C4.99512 48.7104 8.0263 50.6842 10.0001 51.4596C11.7624 52.2351 13.5952 52.8695 15.428 53.4334C17.2608 53.9269 19.0937 54.2793 20.9265 54.5613C22.6888 54.7728 24.3806 54.9138 25.9314 54.9138C27.5528 54.9138 29.2446 54.8433 31.0069 54.6318C35.025 54.1384 39.748 52.799 42.5677 49.6268C45.3874 46.4547 45.8104 41.3087 43.4136 37.7136C42.0743 35.7398 40.5234 34.4709 38.4086 33.5545C36.7873 32.8496 33.6856 31.7922 32.6987 31.5807C31.9938 31.3692 31.3594 31.2282 30.7249 31.0168L19.0232 27.9856C14.9346 26.9282 10.846 25.3774 7.81483 23.1216C4.71315 20.7953 3.44428 17.6232 3.44428 14.0985C3.44428 9.23454 6.26399 5.99188 10.846 3.73611C15.1461 1.62133 20.856 0.77542 25.6495 0.77542C33.3332 0.77542 40.171 2.53774 46.0923 6.6968C47.1497 5.92138 49.053 4.7935 49.9694 4.44104L50.3924 4.864L41.5103 12.6887L40.8759 11.9838L43.9071 8.10665C43.9776 7.96567 44.048 7.89518 43.9071 7.75419C38.5496 4.72301 35.9414 3.73611 30.5135 3.03118C28.8216 2.74921 27.2003 2.67872 25.7905 2.67872C24.4511 2.67872 22.9707 2.74921 21.2789 2.8902C19.5871 3.10168 17.8953 3.38365 16.2035 3.8771C11.9739 5.00498 8.30828 8.24764 7.39187 12.6182C6.33448 17.7641 9.50665 22.4167 14.2297 24.2495C17.4018 25.5183 21.4904 26.3643 32.4873 29.3249C34.6725 29.8889 36.7873 30.5938 38.6906 31.3692C40.6644 32.1446 42.2857 33.1316 43.7661 34.2594ZM125.115 27.8446C124.833 28.479 121.731 30.6643 120.815 31.1578C114.823 34.6119 111.228 35.5283 104.249 34.2594V38.5595C104.249 40.6743 104.249 49.2039 104.319 53.0105C105.588 53.2924 108.901 53.8564 108.972 53.9269V54.8433H97.129V54.2794C97.129 54.1384 98.6799 53.7859 99.5258 53.6449C100.019 53.5039 100.724 53.4334 101.288 53.3629C101.288 49.3449 101.218 41.9431 101.147 39.4759V33.625C99.6668 33.202 98.1159 32.7086 96.6356 32.1447C92.406 30.8758 88.3879 28.8315 84.1584 27.4921C79.9288 26.1528 75.4878 25.4478 71.0467 25.3069C70.6238 25.3069 66.6762 25.2364 64.6319 25.3774V53.3629C65.6188 53.4334 68.2975 53.9269 69.2844 54.2794V54.8433H57.4417V53.9269C57.5122 53.8564 59.204 53.5744 62.5876 52.8695V2.81971C62.5876 2.67872 57.5121 1.76232 57.5121 1.76232V0.845913H62.5876H64.6319H69.3549C69.3549 0.845913 69.4254 1.40985 69.2844 1.48035C68.509 1.76232 67.7336 1.9033 66.9582 2.04429C66.2532 2.18527 65.3368 2.32626 64.6319 2.32626V22.9806C73.8664 22.3462 83.3125 24.1085 91.7011 27.9856C94.6618 29.3249 97.8339 30.5233 101.147 31.2987V25.8708L101.077 2.81971C101.077 2.60823 100.936 2.67872 96.4241 1.76232V0.845913H104.249H108.267V1.40985C106.857 1.9033 105.729 2.11478 104.249 2.25577V15.7904V30.8053V31.9332C112.144 33.202 116.937 32.2151 124.057 28.1971C125.326 27.4921 125.185 27.7036 125.115 27.8446ZM172.697 17.9756C174.177 21.3593 174.953 24.9544 174.953 28.8315C174.953 32.7086 174.177 36.3037 172.697 39.6874C171.287 43.071 169.243 46.1022 166.705 48.6399C164.168 51.1777 161.207 53.1515 157.753 54.6318C154.369 56.1122 150.703 56.8171 146.826 56.8171C143.02 56.8171 139.425 56.1122 135.97 54.6318C132.587 53.1515 129.626 51.1777 127.088 48.6399C124.551 46.1022 122.506 43.071 121.026 39.6874C119.616 36.3037 118.841 32.7086 118.841 28.8315C118.841 25.3069 119.687 21.2183 121.026 17.9756C122.506 14.5215 124.551 11.5608 127.088 9.02306C129.626 6.48532 132.587 4.44104 135.97 2.96069C139.425 1.48035 143.02 0.77542 146.826 0.77542C150.703 0.77542 154.369 1.48035 157.753 2.96069C161.207 4.44104 164.168 6.48532 166.705 9.02306C169.243 11.5608 171.287 14.5215 172.697 17.9756ZM157.682 5.85089C143.513 -1.97379 126.736 7.04926 122.929 22.4167C118.488 40.0398 134.42 58.0155 151.197 53.9269C174.459 48.217 178.548 16.2838 157.682 5.85089ZM228.316 10.5739C229.162 12.5477 229.655 14.6625 229.655 16.8477C229.655 19.033 229.162 21.1478 228.316 23.0511C226.695 26.9282 223.452 30.0299 219.575 31.6512C217.601 32.4971 215.416 32.9201 213.16 32.9201H190.884V53.5039L193.845 54.2794V54.8433H182.002V53.9269C182.002 53.9269 187.148 53.0105 187.148 52.8695V0.77542H213.23C215.486 0.77542 217.601 1.19837 219.575 2.04429C221.619 2.8902 223.311 4.01808 224.862 5.49843C226.342 6.90828 227.47 8.60011 228.316 10.5739ZM223.099 26.8577C225.849 24.2495 227.399 20.6543 227.399 16.8477C227.399 13.1116 225.849 9.51651 223.17 6.83779C221.901 5.56892 220.35 4.58202 218.588 3.8066C216.826 3.03118 214.993 2.67872 212.948 2.67872H190.884V31.0168H212.878C216.826 31.0168 220.491 29.3249 223.099 26.8577ZM287.953 53.1515C288.94 53.3629 291.83 53.8564 291.9 53.9269V54.8433H280.128V54.2089C280.974 53.9269 283.3 53.5039 284.217 53.3629C284.217 53.3629 271.457 25.3069 271.246 24.7429C255.244 28.338 245.023 41.5907 243.683 43.353L239.101 53.3629C240.229 53.5039 242.767 53.8564 243.542 54.2794V54.8433H231.77V53.9269C231.84 53.7859 236.704 53.0105 236.916 52.8695C237.48 52.3056 238.255 50.3318 261.306 0H263.633C287.741 52.94 287.318 52.3056 287.953 53.1515ZM247.137 35.7398C251.931 30.8758 259.544 25.4478 270.4 22.9101L261.8 3.66562L247.137 35.7398ZM350.55 45.9612L349.775 46.6661C349.986 46.4547 348.999 47.3711 348.929 47.4416C345.757 50.6137 345.122 51.3187 339.412 54.4908C334.478 56.6761 329.896 56.8171 325.173 54.4908C316.573 50.3318 307.409 54.8433 307.268 54.8433H304.095V2.8902C304.095 2.67872 303.602 2.67872 298.949 1.76232V0.77542H310.792V1.40985H310.722C309.805 1.76232 307.973 2.11478 307.268 2.18527V2.32626V51.4596C309.876 50.4023 317.982 48.9924 325.948 52.8695L328.486 53.7154C336.381 54.7023 341.598 51.8121 349.916 46.3842L350.55 45.9612ZM409.2 45.9612L408.425 46.6661C408.636 46.4547 407.649 47.3711 407.579 47.4416C404.406 50.6137 403.772 51.3187 398.062 54.4908C393.128 56.6761 388.546 56.8171 383.823 54.4908C375.223 50.3318 366.058 54.8433 365.918 54.8433H362.745V2.8902C362.745 2.67872 362.252 2.67872 357.599 1.76232V0.77542H369.442V1.40985H369.372C368.455 1.76232 366.622 2.11478 365.918 2.18527V2.32626V51.4596C368.526 50.4023 376.632 48.9924 384.598 52.8695L387.136 53.7154C395.031 54.7023 400.247 51.8121 408.566 46.3842L409.2 45.9612Z" fill="#04292A"/>
</svg>
