<svg width="410" height="107" viewBox="0 0 410 107" fill="none" xmlns="http://www.w3.org/2000/svg">
<path d="M43.7661 34.2594C45.1759 35.3873 46.3743 36.7267 47.2202 38.207C48.0661 39.6874 48.4891 41.3792 48.4891 43.2825C48.4891 45.8202 47.7842 47.935 46.3038 49.6268C44.894 51.3891 43.0611 52.7285 40.8759 53.7859C38.6201 54.8433 36.2234 55.6187 33.5446 56.1122C30.8659 56.6056 28.3987 56.8171 26.0019 56.8171C24.1691 56.8171 22.3363 56.6761 20.3625 56.4646C18.4592 56.2531 16.4854 55.9007 14.5821 55.3367C11.4804 54.5613 8.37877 53.3629 5.98202 51.7416C5.13611 51.1072 4.36069 50.4022 3.58527 49.6973C2.88034 49.0629 2.24591 48.358 1.68197 47.653C0.977041 46.9481 -0.291827 45.4678 0.0606363 45.5383C4.99512 48.7104 8.0263 50.6842 10.0001 51.4596C11.7624 52.2351 13.5952 52.8695 15.428 53.4334C17.2608 53.9269 19.0937 54.2793 20.9265 54.5613C22.6888 54.7728 24.3806 54.9138 25.9314 54.9138C27.5528 54.9138 29.2446 54.8433 31.0069 54.6318C35.025 54.1384 39.748 52.799 42.5677 49.6268C45.3874 46.4547 45.8104 41.3087 43.4136 37.7136C42.0743 35.7398 40.5234 34.4709 38.4086 33.5545C36.7873 32.8496 33.6856 31.7922 32.6987 31.5807C31.9938 31.3692 31.3594 31.2282 30.7249 31.0168L19.0232 27.9856C14.9346 26.9282 10.846 25.3774 7.81483 23.1216C4.71315 20.7953 3.44428 17.6232 3.44428 14.0985C3.44428 9.23454 6.26399 5.99188 10.846 3.73611C15.1461 1.62133 20.856 0.77542 25.6495 0.77542C33.3332 0.77542 40.171 2.53774 46.0923 6.6968C47.1497 5.92138 49.053 4.7935 49.9694 4.44104L50.3924 4.864L41.5103 12.6887L40.8759 11.9838L43.9071 8.10665C43.9776 7.96567 44.048 7.89518 43.9071 7.75419C38.5496 4.72301 35.9414 3.73611 30.5135 3.03118C28.8216 2.74921 27.2003 2.67872 25.7905 2.67872C24.4511 2.67872 22.9707 2.74921 21.2789 2.8902C19.5871 3.10168 17.8953 3.38365 16.2035 3.8771C11.9739 5.00498 8.30828 8.24764 7.39187 12.6182C6.33448 17.7641 9.50665 22.4167 14.2297 24.2495C17.4018 25.5183 21.4904 26.3643 32.4873 29.3249C34.6725 29.8889 36.7873 30.5938 38.6906 31.3692C40.6644 32.1446 42.2857 33.1316 43.7661 34.2594ZM125.115 27.8446C124.833 28.479 121.731 30.6643 120.815 31.1578C114.823 34.6119 111.228 35.5283 104.249 34.2594V38.5595C104.249 40.6743 104.249 49.2039 104.319 53.0105C105.588 53.2924 108.901 53.8564 108.972 53.9269V54.8433H97.129V54.2794C97.129 54.1384 98.6799 53.7859 99.5258 53.6449C100.019 53.5039 100.724 53.4334 101.288 53.3629C101.288 49.3449 101.218 41.9431 101.147 39.4759V33.625C99.6668 33.202 98.1159 32.7086 96.6356 32.1447C92.406 30.8758 88.3879 28.8315 84.1584 27.4921C79.9288 26.1528 75.4878 25.4478 71.0467 25.3069C70.6238 25.3069 66.6762 25.2364 64.6319 25.3774V53.3629C65.6188 53.4334 68.2975 53.9269 69.2844 54.2794V54.8433H57.4417V53.9269C57.5122 53.8564 59.204 53.5744 62.5876 52.8695V2.81971C62.5876 2.67872 57.5121 1.76232 57.5121 1.76232V0.845913H62.5876H64.6319H69.3549C69.3549 0.845913 69.4254 1.40985 69.2844 1.48035C68.509 1.76232 67.7336 1.9033 66.9582 2.04429C66.2532 2.18527 65.3368 2.32626 64.6319 2.32626V22.9806C73.8664 22.3462 83.3125 24.1085 91.7011 27.9856C94.6618 29.3249 97.8339 30.5233 101.147 31.2987V25.8708L101.077 2.81971C101.077 2.60823 100.936 2.67872 96.4241 1.76232V0.845913H104.249H108.267V1.40985C106.857 1.9033 105.729 2.11478 104.249 2.25577V15.7904V30.8053V31.9332C112.144 33.202 116.937 32.2151 124.057 28.1971C125.326 27.4921 125.185 27.7036 125.115 27.8446ZM172.697 17.9756C174.177 21.3593 174.953 24.9544 174.953 28.8315C174.953 32.7086 174.177 36.3037 172.697 39.6874C171.287 43.071 169.243 46.1022 166.705 48.6399C164.168 51.1777 161.207 53.1515 157.753 54.6318C154.369 56.1122 150.703 56.8171 146.826 56.8171C143.02 56.8171 139.425 56.1122 135.97 54.6318C132.587 53.1515 129.626 51.1777 127.088 48.6399C124.551 46.1022 122.506 43.071 121.026 39.6874C119.616 36.3037 118.841 32.7086 118.841 28.8315C118.841 25.3069 119.687 21.2183 121.026 17.9756C122.506 14.5215 124.551 11.5608 127.088 9.02306C129.626 6.48532 132.587 4.44104 135.97 2.96069C139.425 1.48035 143.02 0.77542 146.826 0.77542C150.703 0.77542 154.369 1.48035 157.753 2.96069C161.207 4.44104 164.168 6.48532 166.705 9.02306C169.243 11.5608 171.287 14.5215 172.697 17.9756ZM157.682 5.85089C143.513 -1.97379 126.736 7.04926 122.929 22.4167C118.488 40.0398 134.42 58.0155 151.197 53.9269C174.459 48.217 178.548 16.2838 157.682 5.85089ZM228.316 10.5739C229.162 12.5477 229.655 14.6625 229.655 16.8477C229.655 19.033 229.162 21.1478 228.316 23.0511C226.695 26.9282 223.452 30.0299 219.575 31.6512C217.601 32.4971 215.416 32.9201 213.16 32.9201H190.884V53.5039L193.845 54.2794V54.8433H182.002V53.9269C182.002 53.9269 187.148 53.0105 187.148 52.8695V0.77542H213.23C215.486 0.77542 217.601 1.19837 219.575 2.04429C221.619 2.8902 223.311 4.01808 224.862 5.49843C226.342 6.90828 227.47 8.60011 228.316 10.5739ZM223.099 26.8577C225.849 24.2495 227.399 20.6543 227.399 16.8477C227.399 13.1116 225.849 9.51651 223.17 6.83779C221.901 5.56892 220.35 4.58202 218.588 3.8066C216.826 3.03118 214.993 2.67872 212.948 2.67872H190.884V31.0168H212.878C216.826 31.0168 220.491 29.3249 223.099 26.8577ZM287.953 53.1515C288.94 53.3629 291.83 53.8564 291.9 53.9269V54.8433H280.128V54.2089C280.974 53.9269 283.3 53.5039 284.217 53.3629C284.217 53.3629 271.457 25.3069 271.246 24.7429C255.244 28.338 245.023 41.5907 243.683 43.353L239.101 53.3629C240.229 53.5039 242.767 53.8564 243.542 54.2794V54.8433H231.77V53.9269C231.84 53.7859 236.704 53.0105 236.916 52.8695C237.48 52.3056 238.255 50.3318 261.306 0H263.633C287.741 52.94 287.318 52.3056 287.953 53.1515ZM247.137 35.7398C251.931 30.8758 259.544 25.4478 270.4 22.9101L261.8 3.66562L247.137 35.7398ZM350.55 45.9612L349.775 46.6661C349.986 46.4547 348.999 47.3711 348.929 47.4416C345.757 50.6137 345.122 51.3187 339.412 54.4908C334.478 56.6761 329.896 56.8171 325.173 54.4908C316.573 50.3318 307.409 54.8433 307.268 54.8433H304.095V2.8902C304.095 2.67872 303.602 2.67872 298.949 1.76232V0.77542H310.792V1.40985H310.722C309.805 1.76232 307.973 2.11478 307.268 2.18527V2.32626V51.4596C309.876 50.4023 317.982 48.9924 325.948 52.8695L328.486 53.7154C336.381 54.7023 341.598 51.8121 349.916 46.3842L350.55 45.9612ZM409.2 45.9612L408.425 46.6661C408.636 46.4547 407.649 47.3711 407.579 47.4416C404.406 50.6137 403.772 51.3187 398.062 54.4908C393.128 56.6761 388.546 56.8171 383.823 54.4908C375.223 50.3318 366.058 54.8433 365.918 54.8433H362.745V2.8902C362.745 2.67872 362.252 2.67872 357.599 1.76232V0.77542H369.442V1.40985H369.372C368.455 1.76232 366.622 2.11478 365.918 2.18527V2.32626V51.4596C368.526 50.4023 376.632 48.9924 384.598 52.8695L387.136 53.7154C395.031 54.7023 400.247 51.8121 408.566 46.3842L409.2 45.9612Z" fill="#04292A"/>
<path d="M15.0335 106.205H0V83.4556H15.0335V87.1H4.32782V92.5383H14.8911V96.0974H4.32782V102.361H15.0335V106.205ZM55.4873 102.105C54.3484 103.491 52.9674 104.592 51.3445 105.408C49.7216 106.224 47.9325 106.632 45.9774 106.632C44.2881 106.632 42.7031 106.324 41.2225 105.707C39.7419 105.09 38.4512 104.25 37.3503 103.187C36.2493 102.124 35.3809 100.876 34.745 99.4429C34.1091 98.0098 33.7912 96.4675 33.7912 94.8161C33.7912 93.1647 34.1091 91.6224 34.745 90.1893C35.3809 88.7562 36.2493 87.5034 37.3503 86.4309C38.4512 85.3585 39.7419 84.5185 41.2225 83.9111C42.7031 83.3037 44.2881 83 45.9774 83C47.9325 83 49.7216 83.4081 51.3445 84.2243C52.9674 85.0405 54.3199 86.1035 55.4018 87.4132L52.3553 90.5452C51.653 89.5392 50.7466 88.7277 49.6362 88.1108C48.5257 87.4939 47.3062 87.1855 45.9774 87.1855C44.9145 87.1855 43.9132 87.3895 42.9736 87.7976C42.034 88.2057 41.213 88.7562 40.5107 89.449C39.8084 90.1419 39.2532 90.9486 38.8451 91.8692C38.437 92.7898 38.2329 93.7721 38.2329 94.8161C38.2329 95.8411 38.437 96.8139 38.8451 97.7345C39.2532 98.6551 39.8084 99.4619 40.5107 100.155C41.213 100.848 42.034 101.398 42.9736 101.806C43.9132 102.214 44.9145 102.418 45.9774 102.418C47.3821 102.418 48.6254 102.1 49.7073 101.464C50.7893 100.829 51.6909 99.9886 52.4122 98.9446L55.4873 102.105ZM96.3396 94.8161C96.3396 96.4485 96.0217 97.986 95.3858 99.4286C94.7499 100.871 93.8815 102.124 92.7806 103.187C91.6796 104.25 90.3984 105.09 88.9368 105.707C87.4752 106.324 85.9187 106.632 84.2673 106.632C82.6159 106.632 81.0546 106.324 79.5836 105.707C78.1125 105.09 76.8265 104.25 75.7255 103.187C74.6246 102.124 73.7562 100.876 73.1203 99.4429C72.4844 98.0098 72.1665 96.4675 72.1665 94.8161C72.1665 93.1647 72.4844 91.6177 73.1203 90.1751C73.7562 88.7325 74.6246 87.4797 75.7255 86.4167C76.8265 85.3537 78.1125 84.5185 79.5836 83.9111C81.0546 83.3037 82.6159 83 84.2673 83C85.9187 83 87.4752 83.3037 88.9368 83.9111C90.3984 84.5185 91.6796 85.3585 92.7806 86.4309C93.8815 87.5034 94.7499 88.7562 95.3858 90.1893C96.0217 91.6224 96.3396 93.1647 96.3396 94.8161ZM91.8979 94.8161C91.8979 93.7721 91.6986 92.7898 91.3 91.8692C90.9014 90.9486 90.3557 90.1419 89.6628 89.449C88.97 88.7562 88.1585 88.2057 87.2284 87.7976C86.2983 87.3895 85.3113 87.1855 84.2673 87.1855C83.2043 87.1855 82.2078 87.3895 81.2777 87.7976C80.3476 88.2057 79.5361 88.7562 78.8433 89.449C78.1504 90.1419 77.6047 90.9486 77.2061 91.8692C76.8075 92.7898 76.6082 93.7721 76.6082 94.8161C76.6082 95.8411 76.8075 96.8187 77.2061 97.7488C77.6047 98.6789 78.1504 99.4903 78.8433 100.183C79.5361 100.876 80.3476 101.426 81.2777 101.835C82.2078 102.243 83.2043 102.447 84.2673 102.447C85.3113 102.447 86.2983 102.243 87.2284 101.835C88.1585 101.426 88.97 100.876 89.6628 100.183C90.3557 99.4903 90.9014 98.6789 91.3 97.7488C91.6986 96.8187 91.8979 95.8411 91.8979 94.8161ZM138.673 106.205H134.345V91.0008L127.17 103.102L120.279 90.8869V106.205H115.952V83.4271H120.934L127.255 94.7307L133.861 83.4271H138.673V106.205ZM181.86 106.205H177.532V91.0008L170.357 103.102L163.466 90.8869V106.205H159.139V83.4271H164.121L170.442 94.7307L177.048 83.4271H181.86V106.205ZM217.359 106.205H202.326V83.4556H217.359V87.1H206.654V92.5383H217.217V96.0974H206.654V102.361H217.359V106.205ZM254.112 106.205H249.243L247.62 101.023C247.449 100.454 247.235 99.9317 246.979 99.4571C246.723 98.9826 246.415 98.5745 246.054 98.2328C245.693 97.8911 245.261 97.6254 244.758 97.4356C244.255 97.2458 243.662 97.1508 242.979 97.1508H241.327V106.205H236.971V83.4556L245.968 83.4271C246.937 83.4271 247.838 83.5932 248.673 83.9254C249.509 84.2575 250.23 84.7178 250.837 85.3063C251.445 85.8947 251.919 86.5875 252.261 87.3848C252.603 88.182 252.773 89.0457 252.773 89.9758C252.773 90.6401 252.669 91.2855 252.46 91.9119C252.251 92.5383 251.957 93.1172 251.578 93.6487C251.198 94.1802 250.747 94.65 250.225 95.0581C249.703 95.4662 249.129 95.7747 248.502 95.9835C249.224 96.2492 249.812 96.6336 250.268 97.1366C250.723 97.6396 251.084 98.2423 251.35 98.9446C251.483 99.2673 251.606 99.59 251.72 99.9127C251.834 100.235 251.952 100.572 252.076 100.923C252.199 101.275 252.332 101.654 252.474 102.062C252.617 102.47 252.773 102.921 252.944 103.415C253.153 104.041 253.348 104.577 253.528 105.023C253.708 105.47 253.903 105.863 254.112 106.205ZM248.332 90.289C248.332 89.7575 248.232 89.2734 248.033 88.8369C247.833 88.4003 247.563 88.0207 247.221 87.698C246.88 87.3753 246.476 87.1238 246.011 86.9434C245.546 86.7631 245.048 86.673 244.516 86.673H241.327V93.7626H244.516C245.048 93.7626 245.546 93.6819 246.011 93.5206C246.476 93.3593 246.88 93.1267 247.221 92.823C247.563 92.5193 247.833 92.1539 248.033 91.7268C248.232 91.2997 248.332 90.8205 248.332 90.289ZM293.854 102.105C292.715 103.491 291.334 104.592 289.711 105.408C288.088 106.224 286.299 106.632 284.344 106.632C282.654 106.632 281.069 106.324 279.589 105.707C278.108 105.09 276.817 104.25 275.717 103.187C274.616 102.124 273.747 100.876 273.111 99.4429C272.475 98.0098 272.157 96.4675 272.157 94.8161C272.157 93.1647 272.475 91.6224 273.111 90.1893C273.747 88.7562 274.616 87.5034 275.717 86.4309C276.817 85.3585 278.108 84.5185 279.589 83.9111C281.069 83.3037 282.654 83 284.344 83C286.299 83 288.088 83.4081 289.711 84.2243C291.334 85.0405 292.686 86.1035 293.768 87.4132L290.722 90.5452C290.019 89.5392 289.113 88.7277 288.002 88.1108C286.892 87.4939 285.672 87.1855 284.344 87.1855C283.281 87.1855 282.279 87.3895 281.34 87.7976C280.4 88.2057 279.579 88.7562 278.877 89.449C278.175 90.1419 277.619 90.9486 277.211 91.8692C276.803 92.7898 276.599 93.7721 276.599 94.8161C276.599 95.8411 276.803 96.8139 277.211 97.7345C277.619 98.6551 278.175 99.4619 278.877 100.155C279.579 100.848 280.4 101.398 281.34 101.806C282.279 102.214 283.281 102.418 284.344 102.418C285.748 102.418 286.992 102.1 288.074 101.464C289.156 100.829 290.057 99.9886 290.778 98.9446L293.854 102.105ZM327.36 106.205H312.327V83.4556H327.36V87.1H316.654V92.5383H327.218V96.0974H316.654V102.361H327.36V106.205Z" fill="#01696E"/>
</svg>
