<svg width="410" height="242" viewBox="0 0 410 242" fill="none" xmlns="http://www.w3.org/2000/svg">
<g clip-path="url(#clip0_480_40)">
<path d="M171.054 49.0838L175.598 28.218C175.598 28.0497 175.598 27.7132 175.429 27.5449C175.261 27.3766 175.093 27.2083 174.756 27.2083H137.231L135.212 19.8043C135.044 19.1312 134.371 18.6264 133.698 18.6264H124.442C123.601 18.6264 122.76 19.2995 122.76 20.3091C122.76 21.1505 123.433 21.9919 124.442 21.9919H132.351C132.351 21.9919 141.775 56.1513 141.943 56.3196C141.606 56.9927 141.438 57.6658 141.438 58.3388C141.438 60.8629 143.457 62.8822 145.981 62.8822C148.506 62.8822 150.525 60.8629 150.525 58.3388C150.525 57.834 150.525 57.4975 150.357 56.9927H164.996C164.828 57.3292 164.828 57.834 164.828 58.3388C164.828 60.8629 166.847 62.8822 169.371 62.8822C171.895 62.8822 173.915 60.8629 173.915 58.3388C173.915 56.1513 172.232 54.3003 170.213 53.7955C170.044 53.6272 144.635 53.6272 144.635 53.6272L143.457 49.5886H170.213C170.549 49.7569 170.886 49.4204 171.054 49.0838ZM169.371 56.6561C170.381 56.6561 171.054 57.4975 171.054 58.3388C171.054 59.3485 170.213 60.0216 169.371 60.0216C168.362 60.0216 167.689 59.1802 167.689 58.3388C167.689 57.3292 168.53 56.6561 169.371 56.6561ZM145.981 56.6561C146.991 56.6561 147.664 57.4975 147.664 58.3388C147.664 59.3485 146.823 60.0216 145.981 60.0216C144.972 60.0216 144.299 59.1802 144.299 58.3388C144.299 57.3292 145.14 56.6561 145.981 56.6561Z" fill="#17BAC1"/>
<path d="M286.321 99.3975C285.816 97.2099 285.816 93.6762 285.816 89.6376C285.816 76.6806 285.984 56.9927 271.008 33.6027L261.921 19.2995C260.407 16.7754 257.883 15.0927 255.022 14.4196C252.162 13.7465 249.133 14.2513 246.609 15.9341C246.609 15.9341 246.44 15.9341 246.44 16.1023C244.926 17.112 243.748 18.2899 242.907 19.8043C241.56 18.7947 240.046 18.1216 238.531 17.7851C235.502 17.112 232.474 17.6168 229.949 19.2995C229.781 19.2995 229.781 19.4678 229.613 19.4678C227.762 20.814 226.247 22.4967 225.406 24.6843C222.209 23.1698 218.339 23.3381 215.141 25.1891C214.973 25.1891 214.805 25.3573 214.637 25.3573C213.29 26.1987 212.113 27.3766 211.271 28.7228L196.631 5.6694C194.949 2.97703 192.088 0.957751 188.891 0.284659C185.694 -0.388433 182.496 0.116386 179.636 1.96739C179.636 1.96739 179.636 1.96739 179.468 2.13566H179.299C176.607 3.81839 174.588 6.67904 173.915 9.87622C173.241 13.0734 173.746 16.2706 175.597 19.1312L199.997 57.6658C198.819 58.1706 197.641 59.012 196.463 59.8533C195.958 60.1899 195.285 60.6947 194.78 61.0312C191.92 62.8822 189.9 65.7429 189.059 69.1083C188.218 72.4738 188.891 76.0075 190.742 78.8682L199.324 92.33C199.492 92.4983 199.66 92.8348 199.829 93.0031C210.093 107.306 222.882 111.008 231.464 113.532C233.82 114.206 235.839 114.879 237.353 115.552C237.69 115.72 237.858 115.72 238.195 115.72C242.233 116.561 243.411 118.581 245.599 122.114L246.44 123.292C247.113 124.302 248.123 124.807 249.301 124.807C249.974 124.807 250.479 124.638 251.152 124.302C252.666 123.292 253.171 121.273 252.162 119.759L251.488 118.581C249.133 114.71 246.609 110.672 239.878 109.157C238.027 108.316 236.007 107.811 233.483 107.138C224.733 104.614 212.954 101.08 203.699 86.4405L196.8 75.1662C195.958 73.82 195.622 72.1373 195.958 70.4545C196.295 68.7718 197.305 67.4256 198.651 66.5843C199.324 66.0794 199.997 65.7429 200.502 65.2381C201.68 64.3967 203.362 63.3871 203.699 63.2188C203.699 63.2188 203.867 63.3871 204.372 63.8919L214.3 79.5413C214.973 80.5509 215.983 81.0557 217.161 81.0557C217.834 81.0557 218.339 80.8875 219.012 80.5509C220.526 79.5413 221.031 77.522 220.021 76.0075L210.093 60.3581L181.487 15.4292C180.645 14.2513 180.477 12.7369 180.814 11.2224C181.15 9.70795 181.992 8.53004 183.338 7.68867C183.338 7.68867 183.338 7.68867 183.506 7.5204H183.674C184.852 6.67903 186.367 6.51076 187.881 6.84731C189.396 7.18385 190.574 8.02522 191.415 9.3714L211.608 41.175L221.031 55.983C221.704 56.9927 222.714 57.4975 223.892 57.4975C224.565 57.4975 225.07 57.3292 225.743 56.9927C227.257 55.983 227.762 53.9638 226.752 52.4493L217.329 37.6413C215.983 35.4537 216.656 32.5931 218.843 31.0786C221.031 29.7324 223.892 30.4055 225.406 32.5931L234.829 47.4011C235.502 48.4108 236.512 48.9156 237.69 48.9156C238.363 48.9156 238.868 48.7473 239.541 48.4108C241.056 47.4011 241.56 45.3818 240.551 43.8674L232.305 31.4152C231.632 30.4055 231.464 29.0594 231.632 27.8814C231.969 26.7035 232.642 25.5256 233.651 24.8525C234.661 24.1794 236.007 24.0112 237.185 24.1794C238.363 24.516 239.541 25.1891 240.214 26.1987L243.411 31.0786L249.806 41.0067C250.479 42.0164 251.488 42.5212 252.666 42.5212C253.339 42.5212 253.844 42.3529 254.517 42.0164C256.032 41.0067 256.537 38.9875 255.527 37.473L249.133 27.5449C248.46 26.5353 248.291 25.3573 248.628 24.1794C248.964 23.0015 249.637 21.9919 250.479 21.4871C251.488 20.814 252.666 20.6457 253.844 20.9822C255.022 21.3188 256.032 21.9919 256.537 22.8332L265.623 37.1365C279.59 59.012 279.422 77.522 279.422 89.6376C279.422 94.3493 279.422 98.0513 280.095 100.912C280.431 102.426 281.778 103.436 283.292 103.436C283.629 103.436 283.797 103.436 284.133 103.268C285.648 102.931 286.826 101.08 286.321 99.3975Z" fill="#17BAC1"/>
<path d="M43.7661 182.741C45.1759 183.868 46.3743 185.208 47.2202 186.688C48.0661 188.169 48.4891 189.86 48.4891 191.764C48.4891 194.301 47.7842 196.416 46.3038 198.108C44.894 199.87 43.0612 201.21 40.8759 202.267C38.6201 203.324 36.2234 204.1 33.5446 204.593C30.8659 205.087 28.3987 205.298 26.0019 205.298C24.1691 205.298 22.3363 205.157 20.3625 204.946C18.4592 204.734 16.4854 204.382 14.5821 203.818C11.4804 203.042 8.37877 201.844 5.98202 200.223C5.13611 199.588 4.36069 198.883 3.58527 198.178C2.88034 197.544 2.24591 196.839 1.68197 196.134C0.977041 195.429 -0.291827 193.949 0.0606363 194.019C4.99512 197.192 8.0263 199.165 10.0001 199.941C11.7624 200.716 13.5952 201.351 15.428 201.915C17.2608 202.408 19.0937 202.76 20.9265 203.042C22.6888 203.254 24.3806 203.395 25.9314 203.395C27.5528 203.395 29.2446 203.324 31.0069 203.113C35.025 202.619 39.748 201.28 42.5677 198.108C45.3874 194.936 45.8104 189.79 43.4136 186.195C42.0743 184.221 40.5234 182.952 38.4086 182.036C36.7873 181.331 33.6856 180.273 32.6987 180.062C31.9938 179.85 31.3594 179.709 30.7249 179.498L19.0232 176.467C14.9346 175.409 10.846 173.858 7.81483 171.603C4.71315 169.276 3.44428 166.104 3.44428 162.58C3.44428 157.716 6.26399 154.473 10.846 152.217C15.1461 150.102 20.856 149.257 25.6495 149.257C33.3332 149.257 40.171 151.019 46.0923 155.178C47.1497 154.403 49.053 153.275 49.9694 152.922L50.3924 153.345L41.5103 161.17L40.8759 160.465L43.9071 156.588C43.9776 156.447 44.048 156.376 43.9071 156.235C38.5496 153.204 35.9414 152.217 30.5135 151.512C28.8216 151.23 27.2003 151.16 25.7905 151.16C24.4511 151.16 22.9707 151.23 21.2789 151.371C19.5871 151.583 17.8953 151.865 16.2035 152.358C11.9739 153.486 8.30828 156.729 7.39187 161.099C6.33448 166.245 9.50665 170.898 14.2297 172.731C17.4018 173.999 21.4904 174.845 32.4873 177.806C34.6725 178.37 36.7873 179.075 38.6906 179.85C40.6644 180.626 42.2857 181.613 43.7661 182.741ZM125.115 176.326C124.833 176.96 121.731 179.145 120.815 179.639C114.823 183.093 111.228 184.009 104.249 182.741V187.041C104.249 189.155 104.249 197.685 104.319 201.492C105.588 201.774 108.901 202.338 108.972 202.408V203.324H97.129V202.76C97.129 202.62 98.6799 202.267 99.5258 202.126C100.019 201.985 100.724 201.915 101.288 201.844C101.288 197.826 101.218 190.424 101.147 187.957V182.106C99.6668 181.683 98.1159 181.19 96.6356 180.626C92.406 179.357 88.3879 177.313 84.1584 175.973C79.9288 174.634 75.4878 173.929 71.0467 173.788C70.6238 173.788 66.6762 173.718 64.6319 173.858V201.844C65.6188 201.915 68.2975 202.408 69.2844 202.76V203.324H57.4417V202.408C57.5122 202.338 59.204 202.056 62.5876 201.351V151.301C62.5876 151.16 57.5121 150.243 57.5121 150.243V149.327H62.5876H64.6319H69.3549C69.3549 149.327 69.4254 149.891 69.2844 149.961C68.509 150.243 67.7336 150.384 66.9582 150.525C66.2532 150.666 65.3368 150.807 64.6319 150.807V171.462C73.8664 170.827 83.3125 172.59 91.7011 176.467C94.6618 177.806 97.8339 179.004 101.147 179.78V174.352L101.077 151.301C101.077 151.089 100.936 151.16 96.4241 150.243V149.327H104.249H108.267V149.891C106.857 150.384 105.729 150.596 104.249 150.737V164.271V179.286V180.414C112.144 181.683 116.937 180.696 124.057 176.678C125.326 175.973 125.185 176.185 125.115 176.326ZM172.697 166.457C174.177 169.84 174.953 173.436 174.953 177.313C174.953 181.19 174.177 184.785 172.697 188.169C171.287 191.552 169.243 194.583 166.705 197.121C164.168 199.659 161.207 201.633 157.753 203.113C154.369 204.593 150.703 205.298 146.826 205.298C143.02 205.298 139.425 204.593 135.97 203.113C132.587 201.633 129.626 199.659 127.088 197.121C124.551 194.583 122.506 191.552 121.026 188.169C119.616 184.785 118.841 181.19 118.841 177.313C118.841 173.788 119.687 169.699 121.026 166.457C122.506 163.003 124.551 160.042 127.088 157.504C129.626 154.966 132.587 152.922 135.97 151.442C139.425 149.961 143.02 149.257 146.826 149.257C150.703 149.257 154.369 149.961 157.753 151.442C161.207 152.922 164.168 154.966 166.705 157.504C169.243 160.042 171.287 163.003 172.697 166.457ZM157.682 154.332C143.513 146.507 126.736 155.53 122.929 170.898C118.488 188.521 134.42 206.497 151.197 202.408C174.459 196.698 178.548 164.765 157.682 154.332ZM228.316 159.055C229.162 161.029 229.655 163.144 229.655 165.329C229.655 167.514 229.162 169.629 228.316 171.532C226.695 175.409 223.452 178.511 219.575 180.132C217.601 180.978 215.416 181.401 213.16 181.401H190.884V201.985L193.845 202.76V203.324H182.002V202.408C182.002 202.408 187.148 201.492 187.148 201.351V149.257H213.23C215.486 149.257 217.601 149.68 219.575 150.525C221.619 151.371 223.311 152.499 224.862 153.98C226.342 155.389 227.47 157.081 228.316 159.055ZM223.099 175.339C225.849 172.731 227.399 169.135 227.399 165.329C227.399 161.593 225.849 157.998 223.17 155.319C221.901 154.05 220.35 153.063 218.588 152.288C216.826 151.512 214.993 151.16 212.948 151.16H190.884V179.498H212.878C216.826 179.498 220.491 177.806 223.099 175.339ZM287.953 201.633C288.94 201.844 291.83 202.338 291.9 202.408V203.324H280.128V202.69C280.974 202.408 283.3 201.985 284.217 201.844C284.217 201.844 271.457 173.788 271.246 173.224C255.244 176.819 245.023 190.072 243.683 191.834L239.101 201.844C240.229 201.985 242.767 202.338 243.542 202.76V203.324H231.77V202.408C231.84 202.267 236.704 201.492 236.916 201.351C237.48 200.787 238.255 198.813 261.306 148.481H263.633C287.741 201.421 287.318 200.787 287.953 201.633ZM247.137 184.221C251.931 179.357 259.544 173.929 270.4 171.391L261.8 152.147L247.137 184.221ZM350.55 194.442L349.775 195.147C349.986 194.936 348.999 195.852 348.929 195.923C345.757 199.095 345.122 199.8 339.412 202.972C334.478 205.157 329.896 205.298 325.173 202.972C316.573 198.813 307.409 203.324 307.268 203.324H304.095V151.371C304.095 151.16 303.602 151.16 298.949 150.243V149.257H310.792V149.891H310.722C309.805 150.243 307.973 150.596 307.268 150.666V150.807V199.941C309.876 198.883 317.982 197.474 325.948 201.351L328.486 202.197C336.381 203.183 341.598 200.293 349.916 194.865L350.55 194.442ZM409.2 194.442L408.425 195.147C408.636 194.936 407.649 195.852 407.579 195.923C404.406 199.095 403.772 199.8 398.062 202.972C393.128 205.157 388.546 205.298 383.823 202.972C375.223 198.813 366.058 203.324 365.917 203.324H362.745V151.371C362.745 151.16 362.252 151.16 357.599 150.243V149.257H369.442V149.891H369.372C368.455 150.243 366.622 150.596 365.917 150.666V150.807V199.941C368.526 198.883 376.632 197.474 384.598 201.351L387.136 202.197C395.031 203.183 400.247 200.293 408.566 194.865L409.2 194.442Z" fill="#DBE7E8"/>
<path d="M55.9534 240.666H40.9199V217.916H55.9534V221.561H45.2477V226.999H55.8111V230.558H45.2477V236.822H55.9534V240.666ZM96.4072 236.566C95.2683 237.951 93.8874 239.052 92.2644 239.868C90.6415 240.685 88.8525 241.093 86.8974 241.093C85.208 241.093 83.623 240.784 82.1424 240.167C80.6619 239.551 79.3711 238.711 78.2702 237.648C77.1692 236.585 76.3008 235.337 75.6649 233.903C75.0291 232.47 74.7111 230.928 74.7111 229.277C74.7111 227.625 75.0291 226.083 75.6649 224.65C76.3008 223.217 77.1692 221.964 78.2702 220.892C79.3711 219.819 80.6619 218.979 82.1424 218.372C83.623 217.764 85.208 217.461 86.8974 217.461C88.8525 217.461 90.6415 217.869 92.2644 218.685C93.8874 219.501 95.2398 220.564 96.3218 221.874L93.2752 225.006C92.5729 224 91.6665 223.188 90.5561 222.571C89.4456 221.954 88.2261 221.646 86.8974 221.646C85.8344 221.646 84.8331 221.85 83.8935 222.258C82.9539 222.666 82.1329 223.217 81.4306 223.91C80.7283 224.602 80.1731 225.409 79.765 226.33C79.3569 227.25 79.1528 228.233 79.1528 229.277C79.1528 230.302 79.3569 231.274 79.765 232.195C80.1731 233.116 80.7283 233.922 81.4306 234.615C82.1329 235.308 82.9539 235.859 83.8935 236.267C84.8331 236.675 85.8344 236.879 86.8974 236.879C88.302 236.879 89.5453 236.561 90.6273 235.925C91.7092 235.289 92.6108 234.449 93.3321 233.405L96.4072 236.566ZM137.26 229.277C137.26 230.909 136.942 232.447 136.306 233.889C135.67 235.332 134.801 236.585 133.7 237.648C132.6 238.711 131.318 239.551 129.857 240.167C128.395 240.784 126.839 241.093 125.187 241.093C123.536 241.093 121.975 240.784 120.503 240.167C119.032 239.551 117.746 238.711 116.645 237.648C115.545 236.585 114.676 235.337 114.04 233.903C113.404 232.47 113.086 230.928 113.086 229.277C113.086 227.625 113.404 226.078 114.04 224.636C114.676 223.193 115.545 221.94 116.645 220.877C117.746 219.814 119.032 218.979 120.503 218.372C121.975 217.764 123.536 217.461 125.187 217.461C126.839 217.461 128.395 217.764 129.857 218.372C131.318 218.979 132.6 219.819 133.7 220.892C134.801 221.964 135.67 223.217 136.306 224.65C136.942 226.083 137.26 227.625 137.26 229.277ZM132.818 229.277C132.818 228.233 132.619 227.25 132.22 226.33C131.821 225.409 131.276 224.602 130.583 223.91C129.89 223.217 129.078 222.666 128.148 222.258C127.218 221.85 126.231 221.646 125.187 221.646C124.124 221.646 123.128 221.85 122.198 222.258C121.267 222.666 120.456 223.217 119.763 223.91C119.07 224.602 118.525 225.409 118.126 226.33C117.727 227.25 117.528 228.233 117.528 229.277C117.528 230.302 117.727 231.279 118.126 232.209C118.525 233.139 119.07 233.951 119.763 234.644C120.456 235.337 121.267 235.887 122.198 236.295C123.128 236.703 124.124 236.907 125.187 236.907C126.231 236.907 127.218 236.703 128.148 236.295C129.078 235.887 129.89 235.337 130.583 234.644C131.276 233.951 131.821 233.139 132.22 232.209C132.619 231.279 132.818 230.302 132.818 229.277ZM179.593 240.666H175.265V225.461L168.09 237.562L161.199 225.347V240.666H156.871V217.888H161.854L168.175 229.191L174.781 217.888H179.593V240.666ZM222.78 240.666H218.452V225.461L211.277 237.562L204.386 225.347V240.666H200.059V217.888H205.041L211.362 229.191L217.968 217.888H222.78V240.666ZM258.279 240.666H243.246V217.916H258.279V221.561H247.573V226.999H258.137V230.558H247.573V236.822H258.279V240.666ZM295.031 240.666H290.163L288.54 235.484C288.369 234.914 288.155 234.392 287.899 233.918C287.643 233.443 287.334 233.035 286.974 232.693C286.613 232.352 286.181 232.086 285.678 231.896C285.175 231.706 284.582 231.611 283.899 231.611H282.247V240.666H277.891V217.916L286.888 217.888C287.856 217.888 288.758 218.054 289.593 218.386C290.428 218.718 291.15 219.178 291.757 219.767C292.365 220.355 292.839 221.048 293.181 221.845C293.522 222.643 293.693 223.506 293.693 224.436C293.693 225.101 293.589 225.746 293.38 226.372C293.171 226.999 292.877 227.578 292.497 228.109C292.118 228.641 291.667 229.111 291.145 229.519C290.623 229.927 290.049 230.235 289.422 230.444C290.144 230.71 290.732 231.094 291.188 231.597C291.643 232.1 292.004 232.703 292.27 233.405C292.403 233.728 292.526 234.051 292.64 234.373C292.754 234.696 292.872 235.033 292.996 235.384C293.119 235.735 293.252 236.115 293.394 236.523C293.537 236.931 293.693 237.382 293.864 237.875C294.073 238.502 294.267 239.038 294.448 239.484C294.628 239.93 294.823 240.324 295.031 240.666ZM289.252 224.75C289.252 224.218 289.152 223.734 288.953 223.297C288.753 222.861 288.483 222.481 288.141 222.159C287.799 221.836 287.396 221.584 286.931 221.404C286.466 221.224 285.968 221.134 285.436 221.134H282.247V228.223H285.436C285.968 228.223 286.466 228.143 286.931 227.981C287.396 227.82 287.799 227.587 288.141 227.284C288.483 226.98 288.753 226.614 288.953 226.187C289.152 225.76 289.252 225.281 289.252 224.75ZM334.773 236.566C333.635 237.951 332.254 239.052 330.631 239.868C329.008 240.685 327.219 241.093 325.264 241.093C323.574 241.093 321.989 240.784 320.509 240.167C319.028 239.551 317.737 238.711 316.636 237.648C315.536 236.585 314.667 235.337 314.031 233.903C313.395 232.47 313.077 230.928 313.077 229.277C313.077 227.625 313.395 226.083 314.031 224.65C314.667 223.217 315.536 221.964 316.636 220.892C317.737 219.819 319.028 218.979 320.509 218.372C321.989 217.764 323.574 217.461 325.264 217.461C327.219 217.461 329.008 217.869 330.631 218.685C332.254 219.501 333.606 220.564 334.688 221.874L331.641 225.006C330.939 224 330.033 223.188 328.922 222.571C327.812 221.954 326.592 221.646 325.264 221.646C324.201 221.646 323.199 221.85 322.26 222.258C321.32 222.666 320.499 223.217 319.797 223.91C319.095 224.602 318.539 225.409 318.131 226.33C317.723 227.25 317.519 228.233 317.519 229.277C317.519 230.302 317.723 231.274 318.131 232.195C318.539 233.116 319.095 233.922 319.797 234.615C320.499 235.308 321.32 235.859 322.26 236.267C323.199 236.675 324.201 236.879 325.264 236.879C326.668 236.879 327.912 236.561 328.994 235.925C330.075 235.289 330.977 234.449 331.698 233.405L334.773 236.566ZM368.28 240.666H353.246V217.916H368.28V221.561H357.574V226.999H368.138V230.558H357.574V236.822H368.28V240.666Z" fill="#17BAC1"/>
</g>
<defs>
<clipPath id="clip0_480_40">
<rect width="409.2" height="241.093" fill="white"/>
</clipPath>
</defs>
</svg>
