<svg width="576" height="107" viewBox="0 0 576 107" fill="none" xmlns="http://www.w3.org/2000/svg">
<path d="M210.413 34.2594C211.823 35.3873 213.021 36.7267 213.867 38.207C214.713 39.6874 215.136 41.3792 215.136 43.2825C215.136 45.8202 214.431 47.935 212.951 49.6268C211.541 51.3891 209.708 52.7285 207.523 53.7859C205.267 54.8433 202.87 55.6187 200.192 56.1122C197.513 56.6056 195.046 56.8171 192.649 56.8171C190.816 56.8171 188.983 56.6761 187.009 56.4646C185.106 56.2531 183.132 55.9007 181.229 55.3367C178.127 54.5613 175.026 53.3629 172.629 51.7416C171.783 51.1072 171.008 50.4022 170.232 49.6973C169.527 49.0629 168.893 48.358 168.329 47.653C167.624 46.9481 166.355 45.4678 166.708 45.5383C171.642 48.7104 174.673 50.6842 176.647 51.4596C178.409 52.2351 180.242 52.8695 182.075 53.4334C183.908 53.9269 185.741 54.2793 187.573 54.5613C189.336 54.7728 191.028 54.9138 192.578 54.9138C194.2 54.9138 195.892 54.8433 197.654 54.6318C201.672 54.1384 206.395 52.799 209.215 49.6268C212.034 46.4547 212.457 41.3087 210.061 37.7136C208.721 35.7398 207.17 34.4709 205.056 33.5545C203.434 32.8496 200.333 31.7922 199.346 31.5807C198.641 31.3692 198.006 31.2282 197.372 31.0168L185.67 27.9856C181.582 26.9282 177.493 25.3774 174.462 23.1216C171.36 20.7953 170.091 17.6232 170.091 14.0985C170.091 9.23454 172.911 5.99188 177.493 3.73611C181.793 1.62133 187.503 0.77542 192.296 0.77542C199.98 0.77542 206.818 2.53774 212.739 6.6968C213.797 5.92138 215.7 4.7935 216.616 4.44104L217.039 4.864L208.157 12.6887L207.523 11.9838L210.554 8.10665C210.625 7.96567 210.695 7.89518 210.554 7.75419C205.197 4.72301 202.588 3.73611 197.16 3.03118C195.469 2.74921 193.847 2.67872 192.437 2.67872C191.098 2.67872 189.618 2.74921 187.926 2.8902C186.234 3.10168 184.542 3.38365 182.85 3.8771C178.621 5.00498 174.955 8.24764 174.039 12.6182C172.981 17.7641 176.154 22.4167 180.877 24.2495C184.049 25.5183 188.137 26.3643 199.134 29.3249C201.319 29.8889 203.434 30.5938 205.338 31.3692C207.311 32.1446 208.933 33.1316 210.413 34.2594ZM291.762 27.8446C291.48 28.479 288.378 30.6643 287.462 31.1578C281.47 34.6119 277.875 35.5283 270.896 34.2594V38.5595C270.896 40.6743 270.896 49.2039 270.966 53.0105C272.235 53.2924 275.548 53.8564 275.619 53.9269V54.8433H263.776V54.2794C263.776 54.1384 265.327 53.7859 266.173 53.6449C266.666 53.5039 267.371 53.4334 267.935 53.3629C267.935 49.3449 267.865 41.9431 267.794 39.4759V33.625C266.314 33.202 264.763 32.7086 263.283 32.1447C259.053 30.8758 255.035 28.8315 250.805 27.4921C246.576 26.1528 242.135 25.4478 237.694 25.3069C237.271 25.3069 233.323 25.2364 231.279 25.3774V53.3629C232.266 53.4334 234.944 53.9269 235.931 54.2794V54.8433H224.089V53.9269C224.159 53.8564 225.851 53.5744 229.235 52.8695V2.81971C229.235 2.67872 224.159 1.76232 224.159 1.76232V0.845913H229.235H231.279H236.002C236.002 0.845913 236.072 1.40985 235.931 1.48035C235.156 1.76232 234.381 1.9033 233.605 2.04429C232.9 2.18527 231.984 2.32626 231.279 2.32626V22.9806C240.513 22.3462 249.959 24.1085 258.348 27.9856C261.309 29.3249 264.481 30.5233 267.794 31.2987V25.8708L267.724 2.81971C267.724 2.60823 267.583 2.67872 263.071 1.76232V0.845913H270.896H274.914V1.40985C273.504 1.9033 272.376 2.11478 270.896 2.25577V15.7904V30.8053V31.9332C278.791 33.202 283.584 32.2151 290.704 28.1971C291.973 27.4921 291.832 27.7036 291.762 27.8446ZM339.344 17.9756C340.824 21.3593 341.6 24.9544 341.6 28.8315C341.6 32.7086 340.824 36.3037 339.344 39.6874C337.934 43.071 335.89 46.1022 333.352 48.6399C330.814 51.1777 327.854 53.1515 324.4 54.6318C321.016 56.1122 317.35 56.8171 313.473 56.8171C309.667 56.8171 306.072 56.1122 302.617 54.6318C299.234 53.1515 296.273 51.1777 293.735 48.6399C291.198 46.1022 289.153 43.071 287.673 39.6874C286.263 36.3037 285.488 32.7086 285.488 28.8315C285.488 25.3069 286.334 21.2183 287.673 17.9756C289.153 14.5215 291.198 11.5608 293.735 9.02306C296.273 6.48532 299.234 4.44104 302.617 2.96069C306.072 1.48035 309.667 0.77542 313.473 0.77542C317.35 0.77542 321.016 1.48035 324.4 2.96069C327.854 4.44104 330.814 6.48532 333.352 9.02306C335.89 11.5608 337.934 14.5215 339.344 17.9756ZM324.329 5.85089C310.16 -1.97379 293.383 7.04926 289.576 22.4167C285.135 40.0398 301.067 58.0155 317.844 53.9269C341.106 48.217 345.195 16.2838 324.329 5.85089ZM394.963 10.5739C395.809 12.5477 396.302 14.6625 396.302 16.8477C396.302 19.033 395.809 21.1478 394.963 23.0511C393.341 26.9282 390.099 30.0299 386.222 31.6512C384.248 32.4971 382.063 32.9201 379.807 32.9201H357.531V53.5039L360.492 54.2794V54.8433H348.649V53.9269C348.649 53.9269 353.795 53.0105 353.795 52.8695V0.77542H379.877C382.133 0.77542 384.248 1.19837 386.222 2.04429C388.266 2.8902 389.958 4.01808 391.509 5.49843C392.989 6.90828 394.117 8.60011 394.963 10.5739ZM389.746 26.8577C392.496 24.2495 394.046 20.6543 394.046 16.8477C394.046 13.1116 392.496 9.51651 389.817 6.83779C388.548 5.56892 386.997 4.58202 385.235 3.8066C383.473 3.03118 381.64 2.67872 379.595 2.67872H357.531V31.0168H379.525C383.472 31.0168 387.138 29.3249 389.746 26.8577ZM454.6 53.1515C455.586 53.3629 458.477 53.8564 458.547 53.9269V54.8433H446.775V54.2089C447.621 53.9269 449.947 53.5039 450.863 53.3629C450.863 53.3629 438.104 25.3069 437.893 24.7429C421.891 28.338 411.67 41.5907 410.33 43.353L405.748 53.3629C406.876 53.5039 409.414 53.8564 410.189 54.2794V54.8433H398.417V53.9269C398.487 53.7859 403.351 53.0105 403.563 52.8695C404.127 52.3056 404.902 50.3318 427.953 0H430.28C454.388 52.94 453.965 52.3056 454.6 53.1515ZM413.784 35.7398C418.578 30.8758 426.191 25.4478 437.047 22.9101L428.447 3.66562L413.784 35.7398ZM517.197 45.9612L516.422 46.6661C516.633 46.4547 515.646 47.3711 515.576 47.4416C512.404 50.6137 511.769 51.3187 506.059 54.4908C501.125 56.6761 496.543 56.8171 491.82 54.4908C483.22 50.3318 474.056 54.8433 473.915 54.8433H470.742V2.8902C470.742 2.67872 470.249 2.67872 465.596 1.76232V0.77542H477.439V1.40985H477.369C476.452 1.76232 474.62 2.11478 473.915 2.18527V2.32626V51.4596C476.523 50.4023 484.629 48.9924 492.595 52.8695L495.133 53.7154C503.028 54.7023 508.244 51.8121 516.563 46.3842L517.197 45.9612ZM575.847 45.9612L575.072 46.6661C575.283 46.4547 574.296 47.3711 574.226 47.4416C571.053 50.6137 570.419 51.3187 564.709 54.4908C559.775 56.6761 555.193 56.8171 550.47 54.4908C541.87 50.3318 532.705 54.8433 532.564 54.8433H529.392V2.8902C529.392 2.67872 528.899 2.67872 524.246 1.76232V0.77542H536.089V1.40985H536.019C535.102 1.76232 533.269 2.11478 532.564 2.18527V2.32626V51.4596C535.173 50.4023 543.279 48.9924 551.245 52.8695L553.783 53.7154C561.678 54.7023 566.894 51.8121 575.213 46.3842L575.847 45.9612Z" fill="#04292A"/>
<path d="M181.68 106.205H166.647V83.4556H181.68V87.1H170.975V92.5383H181.538V96.0974H170.975V102.361H181.68V106.205ZM222.134 102.105C220.995 103.491 219.614 104.592 217.991 105.408C216.369 106.224 214.58 106.632 212.624 106.632C210.935 106.632 209.35 106.324 207.869 105.707C206.389 105.09 205.098 104.25 203.997 103.187C202.896 102.124 202.028 100.876 201.392 99.4429C200.756 98.0098 200.438 96.4675 200.438 94.8161C200.438 93.1647 200.756 91.6224 201.392 90.1893C202.028 88.7562 202.896 87.5034 203.997 86.4309C205.098 85.3585 206.389 84.5185 207.869 83.9111C209.35 83.3037 210.935 83 212.624 83C214.58 83 216.369 83.4081 217.991 84.2243C219.614 85.0405 220.967 86.1035 222.049 87.4132L219.002 90.5452C218.3 89.5392 217.394 88.7277 216.283 88.1108C215.173 87.4939 213.953 87.1855 212.624 87.1855C211.561 87.1855 210.56 87.3895 209.621 87.7976C208.681 88.2057 207.86 88.7562 207.158 89.449C206.455 90.1419 205.9 90.9486 205.492 91.8692C205.084 92.7898 204.88 93.7721 204.88 94.8161C204.88 95.8411 205.084 96.8139 205.492 97.7345C205.9 98.6551 206.455 99.4619 207.158 100.155C207.86 100.848 208.681 101.398 209.621 101.806C210.56 102.214 211.561 102.418 212.624 102.418C214.029 102.418 215.272 102.1 216.354 101.464C217.436 100.829 218.338 99.9886 219.059 98.9446L222.134 102.105ZM262.987 94.8161C262.987 96.4485 262.669 97.986 262.033 99.4286C261.397 100.871 260.528 102.124 259.428 103.187C258.327 104.25 257.045 105.09 255.584 105.707C254.122 106.324 252.566 106.632 250.914 106.632C249.263 106.632 247.702 106.324 246.231 105.707C244.759 105.09 243.473 104.25 242.372 103.187C241.272 102.124 240.403 100.876 239.767 99.4429C239.131 98.0098 238.813 96.4675 238.813 94.8161C238.813 93.1647 239.131 91.6177 239.767 90.1751C240.403 88.7325 241.272 87.4797 242.372 86.4167C243.473 85.3537 244.759 84.5185 246.231 83.9111C247.702 83.3037 249.263 83 250.914 83C252.566 83 254.122 83.3037 255.584 83.9111C257.045 84.5185 258.327 85.3585 259.428 86.4309C260.528 87.5034 261.397 88.7562 262.033 90.1893C262.669 91.6224 262.987 93.1647 262.987 94.8161ZM258.545 94.8161C258.545 93.7721 258.346 92.7898 257.947 91.8692C257.548 90.9486 257.003 90.1419 256.31 89.449C255.617 88.7562 254.806 88.2057 253.875 87.7976C252.945 87.3895 251.958 87.1855 250.914 87.1855C249.851 87.1855 248.855 87.3895 247.925 87.7976C246.995 88.2057 246.183 88.7562 245.49 89.449C244.797 90.1419 244.252 90.9486 243.853 91.8692C243.454 92.7898 243.255 93.7721 243.255 94.8161C243.255 95.8411 243.454 96.8187 243.853 97.7488C244.252 98.6789 244.797 99.4903 245.49 100.183C246.183 100.876 246.995 101.426 247.925 101.835C248.855 102.243 249.851 102.447 250.914 102.447C251.958 102.447 252.945 102.243 253.875 101.835C254.806 101.426 255.617 100.876 256.31 100.183C257.003 99.4903 257.548 98.6789 257.947 97.7488C258.346 96.8187 258.545 95.8411 258.545 94.8161ZM305.32 106.205H300.992V91.0008L293.817 103.102L286.926 90.8869V106.205H282.598V83.4271H287.581L293.902 94.7307L300.508 83.4271H305.32V106.205ZM348.507 106.205H344.179V91.0008L337.004 103.102L330.113 90.8869V106.205H325.786V83.4271H330.768L337.089 94.7307L343.695 83.4271H348.507V106.205ZM384.006 106.205H368.973V83.4556H384.006V87.1H373.301V92.5383H383.864V96.0974H373.301V102.361H384.006V106.205ZM420.759 106.205H415.89L414.267 101.023C414.096 100.454 413.882 99.9317 413.626 99.4571C413.37 98.9826 413.061 98.5745 412.701 98.2328C412.34 97.8911 411.908 97.6254 411.405 97.4356C410.902 97.2458 410.309 97.1508 409.626 97.1508H407.974V106.205H403.618V83.4556L412.615 83.4271C413.583 83.4271 414.485 83.5932 415.32 83.9254C416.155 84.2575 416.877 84.7178 417.484 85.3063C418.092 85.8947 418.566 86.5875 418.908 87.3848C419.25 88.182 419.42 89.0457 419.42 89.9758C419.42 90.6401 419.316 91.2855 419.107 91.9119C418.898 92.5383 418.604 93.1172 418.224 93.6487C417.845 94.1802 417.394 94.65 416.872 95.0581C416.35 95.4662 415.776 95.7747 415.149 95.9835C415.871 96.2492 416.459 96.6336 416.915 97.1366C417.37 97.6396 417.731 98.2423 417.997 98.9446C418.13 99.2673 418.253 99.59 418.367 99.9127C418.481 100.235 418.599 100.572 418.723 100.923C418.846 101.275 418.979 101.654 419.121 102.062C419.264 102.47 419.42 102.921 419.591 103.415C419.8 104.041 419.995 104.577 420.175 105.023C420.355 105.47 420.55 105.863 420.759 106.205ZM414.979 90.289C414.979 89.7575 414.879 89.2734 414.68 88.8369C414.48 88.4003 414.21 88.0207 413.868 87.698C413.527 87.3753 413.123 87.1238 412.658 86.9434C412.193 86.7631 411.695 86.673 411.163 86.673H407.974V93.7626H411.163C411.695 93.7626 412.193 93.6819 412.658 93.5206C413.123 93.3593 413.527 93.1267 413.868 92.823C414.21 92.5193 414.48 92.1539 414.68 91.7268C414.879 91.2997 414.979 90.8205 414.979 90.289ZM460.5 102.105C459.362 103.491 457.981 104.592 456.358 105.408C454.735 106.224 452.946 106.632 450.991 106.632C449.301 106.632 447.716 106.324 446.236 105.707C444.755 105.09 443.464 104.25 442.363 103.187C441.263 102.124 440.394 100.876 439.758 99.4429C439.122 98.0098 438.804 96.4675 438.804 94.8161C438.804 93.1647 439.122 91.6224 439.758 90.1893C440.394 88.7562 441.263 87.5034 442.363 86.4309C443.464 85.3585 444.755 84.5185 446.236 83.9111C447.716 83.3037 449.301 83 450.991 83C452.946 83 454.735 83.4081 456.358 84.2243C457.981 85.0405 459.333 86.1035 460.415 87.4132L457.369 90.5452C456.666 89.5392 455.76 88.7277 454.649 88.1108C453.539 87.4939 452.319 87.1855 450.991 87.1855C449.928 87.1855 448.926 87.3895 447.987 87.7976C447.047 88.2057 446.226 88.7562 445.524 89.449C444.822 90.1419 444.266 90.9486 443.858 91.8692C443.45 92.7898 443.246 93.7721 443.246 94.8161C443.246 95.8411 443.45 96.8139 443.858 97.7345C444.266 98.6551 444.822 99.4619 445.524 100.155C446.226 100.848 447.047 101.398 447.987 101.806C448.926 102.214 449.928 102.418 450.991 102.418C452.395 102.418 453.639 102.1 454.721 101.464C455.803 100.829 456.704 99.9886 457.425 98.9446L460.5 102.105ZM494.007 106.205H478.973V83.4556H494.007V87.1H483.301V92.5383H493.865V96.0974H483.301V102.361H494.007V106.205Z" fill="#01696E"/>
<path d="M41.404 42.0808L45.2991 24.192C45.2991 24.0477 45.2991 23.7592 45.1549 23.6149C45.0106 23.4707 44.8664 23.3264 44.5778 23.3264H12.4068L10.6756 16.9788C10.5313 16.4017 9.95427 15.9689 9.37721 15.9689H1.44265C0.721324 15.9689 0 16.546 0 17.4116C0 18.1329 0.577059 18.8542 1.44265 18.8542H8.22309C8.22309 18.8542 16.3019 48.14 16.4462 48.2842C16.1577 48.8613 16.0134 49.4383 16.0134 50.0154C16.0134 52.1794 17.7446 53.9105 19.9085 53.9105C22.0725 53.9105 23.8037 52.1794 23.8037 50.0154C23.8037 49.5826 23.8037 49.2941 23.6594 48.8613H36.2105C36.0662 49.1498 36.0662 49.5826 36.0662 50.0154C36.0662 52.1794 37.7974 53.9105 39.9613 53.9105C42.1253 53.9105 43.8565 52.1794 43.8565 50.0154C43.8565 48.14 42.4139 46.553 40.6827 46.1202C40.5384 45.976 18.7544 45.976 18.7544 45.976L17.7446 42.5136H40.6827C40.9712 42.6579 41.2597 42.3694 41.404 42.0808ZM39.9613 48.5727C40.8269 48.5727 41.404 49.2941 41.404 50.0154C41.404 50.881 40.6827 51.458 39.9613 51.458C39.0958 51.458 38.5187 50.7367 38.5187 50.0154C38.5187 49.1498 39.24 48.5727 39.9613 48.5727ZM19.9085 48.5727C20.7741 48.5727 21.3512 49.2941 21.3512 50.0154C21.3512 50.881 20.6299 51.458 19.9085 51.458C19.043 51.458 18.4659 50.7367 18.4659 50.0154C18.4659 49.1498 19.1872 48.5727 19.9085 48.5727Z" fill="#01696E"/>
<path d="M140.225 85.216C139.792 83.3406 139.792 80.311 139.792 76.8487C139.792 65.7403 139.937 48.8613 127.097 28.8085L119.307 16.546C118.008 14.382 115.844 12.9393 113.392 12.3623C110.939 11.7852 108.343 12.218 106.179 13.6607C106.179 13.6607 106.034 13.6607 106.034 13.8049C104.736 14.6705 103.726 15.6804 103.005 16.9788C101.851 16.1132 100.552 15.5361 99.254 15.2476C96.6573 14.6705 94.0605 15.1033 91.8965 16.546C91.7523 16.546 91.7523 16.6902 91.608 16.6902C90.0211 17.8444 88.7227 19.287 88.0014 21.1624C85.2604 19.8641 81.9423 20.0083 79.2012 21.5952C79.057 21.5952 78.9127 21.7395 78.7684 21.7395C77.6143 22.4608 76.6045 23.4707 75.8831 24.6248L63.3321 4.86052C61.8895 2.55228 59.437 0.821105 56.6959 0.244045C53.9549 -0.333014 51.2139 0.0997804 48.7614 1.68669C48.7614 1.68669 48.7614 1.68669 48.6171 1.83096H48.4728C46.1646 3.27361 44.4334 5.72611 43.8564 8.46714C43.2793 11.2082 43.7121 13.9492 45.299 16.4017L66.2174 49.4383C65.2075 49.8711 64.1977 50.5925 63.1878 51.3138C62.755 51.6023 62.178 52.0351 61.7452 52.3236C59.2927 53.9106 57.5615 56.3631 56.8402 59.2484C56.1189 62.1337 56.6959 65.1632 58.2828 67.6157L65.6403 79.1569C65.7846 79.3012 65.9289 79.5897 66.0731 79.734C74.8733 91.9965 85.8374 95.1703 93.1949 97.3343C95.2146 97.9113 96.9458 98.4884 98.2442 99.0654C98.5327 99.2097 98.677 99.2097 98.9655 99.2097C102.428 99.931 103.438 101.662 105.313 104.692L106.034 105.702C106.612 106.567 107.477 107 108.487 107C109.064 107 109.497 106.856 110.074 106.567C111.372 105.702 111.805 103.97 110.939 102.672L110.362 101.662C108.343 98.3441 106.179 94.8818 100.408 93.5834C98.8212 92.862 97.0901 92.4293 94.9261 91.8522C87.4243 89.6882 77.3258 86.6587 69.3912 74.1076L63.4764 64.4419C62.755 63.2878 62.4665 61.8451 62.755 60.4025C63.0436 58.9598 63.9092 57.8057 65.0633 57.0844C65.6403 56.6516 66.2174 56.3631 66.6502 55.9303C67.66 55.2089 69.1027 54.3434 69.3912 54.1991C69.3912 54.1991 69.5355 54.3433 69.9683 54.7761L78.4799 68.1928C79.057 69.0584 79.9226 69.4912 80.9324 69.4912C81.5095 69.4912 81.9423 69.3469 82.5193 69.0584C83.8177 68.1928 84.2505 66.4616 83.3849 65.1632L74.8733 51.7466L50.3483 13.2279C49.6269 12.218 49.4827 10.9196 49.7712 9.62126C50.0597 8.32287 50.7811 7.31302 51.9352 6.5917C51.9352 6.5917 51.9352 6.5917 52.0794 6.44743H52.2237C53.2336 5.72611 54.5319 5.58184 55.8303 5.87037C57.1287 6.1589 58.1386 6.88023 58.8599 8.03434L76.1717 35.3004L84.2505 47.9957C84.8276 48.8613 85.6931 49.2941 86.703 49.2941C87.2801 49.2941 87.7128 49.1498 88.2899 48.8613C89.5883 47.9957 90.0211 46.2645 89.1555 44.9661L81.0767 32.2708C79.9225 30.3954 80.4996 27.9429 82.3751 26.6445C84.2505 25.4904 86.703 26.0674 88.0014 27.9429L96.0802 40.6382C96.6573 41.5038 97.5229 41.9366 98.5327 41.9366C99.1098 41.9366 99.5426 41.7923 100.12 41.5038C101.418 40.6382 101.851 38.907 100.985 37.6086L93.9162 26.933C93.3392 26.0674 93.1949 24.9133 93.3392 23.9035C93.6277 22.8936 94.2048 21.8838 95.0704 21.3067C95.936 20.7296 97.0901 20.5854 98.0999 20.7296C99.1098 21.0182 100.12 21.5952 100.697 22.4608L103.438 26.6445L108.92 35.1561C109.497 36.0217 110.362 36.4545 111.372 36.4545C111.949 36.4545 112.382 36.3102 112.959 36.0217C114.258 35.1561 114.69 33.4249 113.825 32.1266L108.343 23.6149C107.766 22.7494 107.621 21.7395 107.91 20.7296C108.198 19.7198 108.776 18.8542 109.497 18.4214C110.362 17.8444 111.372 17.7001 112.382 17.9886C113.392 18.2771 114.258 18.8542 114.69 19.5755L122.481 31.838C134.455 50.5925 134.31 66.4616 134.31 76.8487C134.31 80.8881 134.31 84.0619 134.887 86.5144C135.176 87.8128 136.33 88.6784 137.628 88.6784C137.917 88.6784 138.061 88.6784 138.35 88.5341C139.648 88.2456 140.658 86.6587 140.225 85.216Z" fill="#01696E"/>
</svg>
