<svg xmlns="http://www.w3.org/2000/svg" viewBox="0 0 100 100" preserveAspectRatio="xMidYMid" width="200" height="200" style="shape-rendering: auto; display: block; background: rgb(255, 255, 255);"><g data-idx="1"><defs data-idx="2">
  <clipPath height="100" width="100" y="0" x="0" id="$id-cp" data-idx="3">
    <rect height="46" width="100" y="5" x="0" data-idx="4">
  </rect></clipPath>
</defs>
<path fill="#dddddd" d="M70 75.2H34.1l-4.1-18.4l-0.7-3l-1-4.7c0 0 0 0 0-0.1c0-0.1 0-0.1-0.1-0.2c0 0 0-0.1-0.1-0.1c0 0 0-0.1-0.1-0.1 c0 0-0.1-0.1-0.1-0.1c0 0-0.1-0.1-0.1-0.1c0 0-0.1-0.1-0.1-0.1c0 0 0 0-0.1-0.1L22.3 44c0-0.1 0-0.2 0-0.3c0-1.9-1.6-3.5-3.5-3.5 s-3.5 1.6-3.5 3.5c0 1.9 1.6 3.5 3.5 3.5c0.7 0 1.4-0.2 2-0.6l4.8 3.7L31.5 77c0 0 0 0 0 0l-5.6 7.7c-0.3 0.5-0.4 1.1-0.1 1.6 c0.3 0.5 0.8 0.8 1.3 0.8h4c-0.8 0.8-1.3 1.9-1.3 3.2c0 2.6 2.1 4.7 4.7 4.7c2.6 0 4.7-2.1 4.7-4.7c0-1.2-0.5-2.3-1.3-3.2h29 c-0.8 0.8-1.3 1.9-1.3 3.2c0 2.6 2.1 4.7 4.7 4.7c2.6 0 4.7-2.1 4.7-4.7c0-1.2-0.5-2.3-1.3-3.2H77c0.8 0 1.5-0.7 1.5-1.5 s-0.7-1.5-1.5-1.5H30l4.3-6h36.8c0.7 0 1.3-0.5 1.4-1.1l7.5-27.3c0.2-0.8-0.2-1.6-1-1.8c-0.8-0.2-1.6 0.2-1.8 1l-1.3 4.7l-0.8 3" data-idx="5"></path>
<polygon fill="#dddddd" points="31.3 53.1 35.7 73.2 68.5 73.2 74 53.1" data-idx="6"></polygon>
<g clip-path="url(#$id-cp)" data-idx="7">
  <g data-idx="8" transform="matrix(1,0,0,1,0,4.029146194458008)">
  <g data-idx="9">
    <path fill="#e15b64" d="M56.5,34.3c-0.4-0.2-0.8-0.5-1.2-0.7c-0.3-0.1-0.7-0.3-1-0.4c-1.2,5.6-8.3,4.1-7.2-1.5c-0.4,0-0.7,0-1.1,0c-0.5,0-1,0.1-1.4,0.2c-1.8,0.3-3.6,0.9-5.3,1.8l1.1,4.2l3.1-0.8l-2.2,10.8l11.9,2.4l2.2-10.8l2.5,2l2.7-3.4C59.5,36.6,58.1,35.3,56.5,34.3z" data-idx="10" transform="matrix(0.7799396139436583,0.6258547743697552,-0.6258547743697552,0.7799396139436583,36.66306505197705,-22.270262890177747)">
      
    </path>
  </g>
  
</g>
<g data-idx="13" transform="matrix(1,0,0,1,0,4.029146194458008)">
  <g data-idx="14">
    <path fill="#f47e60" d="M38.4,11.7L37.5,12l0.8-2.3l-2.2,1l-1.2-2.2l-1.6,4.6l-4.6-1.6l0.9,2.3L27.4,15l2.3,0.8L29,16.1c-0.6,0.3-0.8,0.9-0.5,1.5l1,2.1c0.3,0.7,0.9,0.9,1.5,0.6l0.1-0.1l2.1,4.5c0.4,0.7,1.1,1,1.8,0.6l1.7-0.8l1.7-0.8l1.6-0.8l1.7-0.8c0.7-0.3,1-1.1,0.7-1.8l-2.2-4.4l0.1-0.1c0.6-0.3,0.8-0.9,0.5-1.5l-1-2.1C39.6,11.6,38.9,11.4,38.4,11.7z" data-idx="15" transform="matrix(0.7799396139436583,0.6258547743697552,-0.6258547743697552,0.7799396139436583,18.341644676257797,-18.163890539983626)">
      
    </path>
  </g>
  
</g>
<g data-idx="18" transform="matrix(1,0,0,1,0,4.029146194458008)">
  <g data-idx="19">
    <path fill="#f8b26a" d="M61.5,22.3l6.4-2.3l0.5-0.2l-0.4-1l-6.9,2.5c-0.8,0.3-1.2,1.2-1.1,2c0,0.1,0,0.2,0.1,0.3l3,8.2c0.4,1.1,1.6,1.6,2.7,1.2l5.6-2c0.5-0.2,0.8-0.8,0.6-1.3l-2.8-7.6l-0.4-1l-0.4,0.2l-0.5,0.2l-3.2,1.2l-2.7,1c-0.3,0.1-0.6,0-0.8-0.2 c-0.1-0.1-0.1-0.1-0.1-0.2C60.9,22.9,61.1,22.4,61.5,22.3z" data-idx="20" transform="matrix(0.7799396139436583,0.6258547743697552,-0.6258547743697552,0.7799396139436583,30.796209613332195,-35.58484507093896)">
      
    </path>
  </g>
  
</g>
<g data-idx="23" transform="matrix(1,0,0,1,0,4.029146194458008)">
  <g data-idx="24">
    <polygon fill="#abbd81" points="55,1.1 56.6,4.3 60.1,4.9 57.6,7.3 58.2,10.9 55,9.2 51.8,10.9 52.4,7.3 49.9,4.9 53.4,4.3" data-idx="25" transform="matrix(0.7799396139436583,0.6258547743697552,-0.6258547743697552,0.7799396139436583,15.858449879317327,-33.10165027399849)">
      
    </polygon>
  </g>
  
</g>
</g>
<g transform="matrix(1,0,0,1,0,-75)" data-idx="28">
  <g data-idx="29" transform="matrix(1,0,0,1,0,4.029146194458008)">
  <g data-idx="30">
    <path fill="#e15b64" d="M56.5,34.3c-0.4-0.2-0.8-0.5-1.2-0.7c-0.3-0.1-0.7-0.3-1-0.4c-1.2,5.6-8.3,4.1-7.2-1.5c-0.4,0-0.7,0-1.1,0c-0.5,0-1,0.1-1.4,0.2c-1.8,0.3-3.6,0.9-5.3,1.8l1.1,4.2l3.1-0.8l-2.2,10.8l11.9,2.4l2.2-10.8l2.5,2l2.7-3.4C59.5,36.6,58.1,35.3,56.5,34.3z" data-idx="31" transform="matrix(0.7799396139436583,0.6258547743697552,-0.6258547743697552,0.7799396139436583,36.66306505197705,-22.270262890177747)">
      
    </path>
  </g>
  
</g>
<g data-idx="34" transform="matrix(1,0,0,1,0,4.029146194458008)">
  <g data-idx="35">
    <path fill="#f47e60" d="M38.4,11.7L37.5,12l0.8-2.3l-2.2,1l-1.2-2.2l-1.6,4.6l-4.6-1.6l0.9,2.3L27.4,15l2.3,0.8L29,16.1c-0.6,0.3-0.8,0.9-0.5,1.5l1,2.1c0.3,0.7,0.9,0.9,1.5,0.6l0.1-0.1l2.1,4.5c0.4,0.7,1.1,1,1.8,0.6l1.7-0.8l1.7-0.8l1.6-0.8l1.7-0.8c0.7-0.3,1-1.1,0.7-1.8l-2.2-4.4l0.1-0.1c0.6-0.3,0.8-0.9,0.5-1.5l-1-2.1C39.6,11.6,38.9,11.4,38.4,11.7z" data-idx="36" transform="matrix(0.7799396139436583,0.6258547743697552,-0.6258547743697552,0.7799396139436583,18.341644676257797,-18.163890539983626)">
      
    </path>
  </g>
  
</g>
<g data-idx="39" transform="matrix(1,0,0,1,0,4.029146194458008)">
  <g data-idx="40">
    <path fill="#f8b26a" d="M61.5,22.3l6.4-2.3l0.5-0.2l-0.4-1l-6.9,2.5c-0.8,0.3-1.2,1.2-1.1,2c0,0.1,0,0.2,0.1,0.3l3,8.2c0.4,1.1,1.6,1.6,2.7,1.2l5.6-2c0.5-0.2,0.8-0.8,0.6-1.3l-2.8-7.6l-0.4-1l-0.4,0.2l-0.5,0.2l-3.2,1.2l-2.7,1c-0.3,0.1-0.6,0-0.8-0.2 c-0.1-0.1-0.1-0.1-0.1-0.2C60.9,22.9,61.1,22.4,61.5,22.3z" data-idx="41" transform="matrix(0.7799396139436583,0.6258547743697552,-0.6258547743697552,0.7799396139436583,30.796209613332195,-35.58484507093896)">
      
    </path>
  </g>
  
</g>
<g data-idx="44" transform="matrix(1,0,0,1,0,4.029146194458008)">
  <g data-idx="45">
    <polygon fill="#abbd81" points="55,1.1 56.6,4.3 60.1,4.9 57.6,7.3 58.2,10.9 55,9.2 51.8,10.9 52.4,7.3 49.9,4.9 53.4,4.3" data-idx="46" transform="matrix(0.7799396139436583,0.6258547743697552,-0.6258547743697552,0.7799396139436583,15.858449879317327,-33.10165027399849)">
      
    </polygon>
  </g>
  
</g>
</g><g data-idx="49"></g></g><text data-watermark="true" text-anchor="middle" dominant-baseline="middle" stroke-opacity="0.1" fill="black" fill-opacity="0.1" stroke="white" stroke-width="1" font-size="5.0" x="50" y="50" data-idx="50" style="opacity: 1; font-size: 5px;">LOADING.IO</text></svg>